<svg width="30" height="24" viewBox="0 0 30 24" fill="none" xmlns="http://www.w3.org/2000/svg">
<path fill-rule="evenodd" clip-rule="evenodd" d="M17.2558 6.58333H1.66663C0.97627 6.58333 0.416626 6.02369 0.416626 5.33333C0.416626 4.64298 0.97627 4.08333 1.66663 4.08333H17.2558C17.7999 2.15958 19.5687 0.75 21.6666 0.75C23.7646 0.75 25.5333 2.15958 26.0774 4.08333H28.3333C29.0236 4.08333 29.5833 4.64298 29.5833 5.33333C29.5833 6.02369 29.0236 6.58333 28.3333 6.58333H26.0774C25.5333 8.50709 23.7646 9.91667 21.6666 9.91667C19.5687 9.91667 17.7999 8.50709 17.2558 6.58333ZM19.5833 5.33333C19.5833 4.18274 20.516 3.25 21.6666 3.25C22.8172 3.25 23.75 4.18274 23.75 5.33333C23.75 6.48393 22.8172 7.41667 21.6666 7.41667C20.516 7.41667 19.5833 6.48393 19.5833 5.33333Z" fill="black"/>
<path fill-rule="evenodd" clip-rule="evenodd" d="M12.7441 19.9167H28.3333C29.0236 19.9167 29.5833 19.357 29.5833 18.6667C29.5833 17.9763 29.0236 17.4167 28.3333 17.4167H12.7441C12.2 15.4929 10.4313 14.0833 8.33329 14.0833C6.23533 14.0833 4.46659 15.4929 3.92249 17.4167H1.66663C0.976271 17.4167 0.416626 17.9763 0.416626 18.6667C0.416626 19.357 0.976271 19.9167 1.66663 19.9167H3.92249C4.46659 21.8404 6.23533 23.25 8.33329 23.25C10.4313 23.25 12.2 21.8404 12.7441 19.9167ZM6.24996 18.6667C6.24996 17.5161 7.1827 16.5833 8.33329 16.5833C9.48389 16.5833 10.4166 17.5161 10.4166 18.6667C10.4166 19.8173 9.48389 20.75 8.33329 20.75C7.1827 20.75 6.24996 19.8173 6.24996 18.6667Z" fill="black"/>
</svg>
