<svg width="18" height="31" viewBox="0 0 18 31" fill="none" xmlns="http://www.w3.org/2000/svg">
<path d="M11.0365 30.9399H6.24003C5.43886 30.9399 4.78715 30.2872 4.78715 29.4847V18.6485H1.98877C1.18761 18.6485 0.535889 17.9955 0.535889 17.1933V12.55C0.535889 11.7475 1.18761 11.0947 1.98877 11.0947H4.78715V8.76953C4.78715 6.464 5.50993 4.50249 6.87713 3.09738C8.25049 1.68587 10.1698 0.939941 12.4275 0.939941L16.0855 0.945892C16.8853 0.947266 17.5359 1.60004 17.5359 2.40112V6.71234C17.5359 7.5148 16.8844 8.16757 16.0835 8.16757L13.6205 8.16849C12.8694 8.16849 12.6782 8.31932 12.6373 8.36555C12.5698 8.44223 12.4896 8.65898 12.4896 9.25751V11.0945H15.8984C16.155 11.0945 16.4036 11.1579 16.6173 11.2774C17.0782 11.5353 17.3647 12.0231 17.3647 12.5502L17.3629 17.1935C17.3629 17.9955 16.7112 18.6483 15.91 18.6483H12.4896V29.4847C12.4896 30.2872 11.8377 30.9399 11.0365 30.9399ZM6.54304 29.1812H10.7335V17.8612C10.7335 17.3254 11.1688 16.8896 11.7035 16.8896H15.607L15.6086 12.8535H11.7033C11.1686 12.8535 10.7335 12.4177 10.7335 11.8819V9.25751C10.7335 8.5704 10.8032 7.789 11.321 7.20169C11.9467 6.4917 12.9327 6.40976 13.6201 6.40976L15.78 6.40884V2.70416L12.4261 2.69867C8.79778 2.69867 6.54304 5.02502 6.54304 8.76953V11.8819C6.54304 12.4174 6.10795 12.8535 5.57323 12.8535H2.29178V16.8896H5.57323C6.10795 16.8896 6.54304 17.3254 6.54304 17.8612V29.1812ZM16.0821 2.70462H16.0823H16.0821Z" fill="#1FBD8A"/>
</svg>
