<svg width="31" height="30" viewBox="0 0 31 30" fill="none" xmlns="http://www.w3.org/2000/svg">
<path d="M22.0277 0.45166H8.49022C4.08434 0.45166 0.5 4.036 0.5 8.44188V21.9795C0.5 26.3852 4.08434 29.9695 8.49022 29.9695H22.0279C26.4335 29.9695 30.0179 26.3852 30.0179 21.9795V8.44188C30.0179 4.036 26.4335 0.45166 22.0277 0.45166V0.45166ZM28.2874 21.9795C28.2874 25.431 25.4794 28.2391 22.0277 28.2391H8.49022C5.03853 28.2391 2.23046 25.431 2.23046 21.9795V8.44188C2.23046 4.99019 5.03853 2.18212 8.49022 2.18212H22.0279C25.4794 2.18212 28.2874 4.99019 28.2874 8.44188V21.9795Z" fill="#1FBD8A"/>
<path fill-rule="evenodd" clip-rule="evenodd" d="M22.0277 0.45166C26.4335 0.45166 30.0179 4.036 30.0179 8.44188V21.9795C30.0179 26.3852 26.4335 29.9695 22.0279 29.9695H8.49022C4.08434 29.9695 0.5 26.3852 0.5 21.9795V8.44188C0.5 4.036 4.08434 0.45166 8.49022 0.45166H22.0277ZM22.0277 28.2391C25.4794 28.2391 28.2874 25.431 28.2874 21.9795V8.44188C28.2874 4.99019 25.4794 2.18212 22.0279 2.18212H8.49022C5.03853 2.18212 2.23046 4.99019 2.23046 8.44188V21.9795C2.23046 25.431 5.03853 28.2391 8.49022 28.2391H22.0277Z" fill="#1FBD8A"/>
<path d="M15.2589 7.13965C10.8085 7.13965 7.18787 10.7602 7.18787 15.2107C7.18787 19.6612 10.8085 23.2818 15.2589 23.2818C19.7094 23.2818 23.33 19.6612 23.33 15.2107C23.33 10.7602 19.7094 7.13965 15.2589 7.13965ZM15.2589 21.5513C11.7629 21.5513 8.91833 18.707 8.91833 15.2107C8.91833 11.7147 11.7629 8.87011 15.2589 8.87011C18.7552 8.87011 21.5995 11.7147 21.5995 15.2107C21.5995 18.707 18.7552 21.5513 15.2589 21.5513Z" fill="#1FBD8A"/>
<path fill-rule="evenodd" clip-rule="evenodd" d="M7.18787 15.2107C7.18787 10.7602 10.8085 7.13965 15.2589 7.13965C19.7094 7.13965 23.33 10.7602 23.33 15.2107C23.33 19.6612 19.7094 23.2818 15.2589 23.2818C10.8085 23.2818 7.18787 19.6612 7.18787 15.2107ZM8.91833 15.2107C8.91833 18.707 11.7629 21.5513 15.2589 21.5513C18.7552 21.5513 21.5995 18.707 21.5995 15.2107C21.5995 11.7147 18.7552 8.87011 15.2589 8.87011C11.7629 8.87011 8.91833 11.7147 8.91833 15.2107Z" fill="#1FBD8A"/>
<path d="M23.523 4.27295C22.2078 4.27295 21.1381 5.34289 21.1381 6.65786C21.1381 7.97305 22.2078 9.04299 23.523 9.04299C24.8382 9.04299 25.9081 7.97305 25.9081 6.65786C25.9081 5.34267 24.8382 4.27295 23.523 4.27295ZM23.523 7.3123C23.1622 7.3123 22.8685 7.01863 22.8685 6.65786C22.8685 6.29685 23.1622 6.00341 23.523 6.00341C23.884 6.00341 24.1776 6.29685 24.1776 6.65786C24.1776 7.01863 23.884 7.3123 23.523 7.3123Z" fill="#1FBD8A"/>
<path fill-rule="evenodd" clip-rule="evenodd" d="M21.1381 6.65786C21.1381 5.34289 22.2078 4.27295 23.523 4.27295C24.8382 4.27295 25.9081 5.34267 25.9081 6.65786C25.9081 7.97305 24.8382 9.04299 23.523 9.04299C22.2078 9.04299 21.1381 7.97305 21.1381 6.65786ZM22.8685 6.65786C22.8685 7.01863 23.1622 7.3123 23.523 7.3123C23.884 7.3123 24.1776 7.01863 24.1776 6.65786C24.1776 6.29685 23.884 6.00341 23.523 6.00341C23.1622 6.00341 22.8685 6.29685 22.8685 6.65786Z" fill="#1FBD8A"/>
</svg>
