<svg width="41" height="41" viewBox="0 0 41 41" fill="none" xmlns="http://www.w3.org/2000/svg">
<path fill-rule="evenodd" clip-rule="evenodd" d="M18.8333 6.45459C12.0218 6.45459 6.5 11.9764 6.5 18.7879C6.5 25.5994 12.0218 31.1213 18.8333 31.1213C25.6448 31.1213 31.1667 25.5994 31.1667 18.7879C31.1667 11.9764 25.6448 6.45459 18.8333 6.45459ZM4.5 18.7879C4.5 10.8718 10.9173 4.45459 18.8333 4.45459C26.7494 4.45459 33.1667 10.8718 33.1667 18.7879C33.1667 26.704 26.7494 33.1213 18.8333 33.1213C10.9173 33.1213 4.5 26.704 4.5 18.7879Z" fill="white"/>
<path fill-rule="evenodd" clip-rule="evenodd" d="M27.5429 27.4975C27.9334 27.107 28.5666 27.107 28.9571 27.4975L36.2071 34.7475C36.5976 35.138 36.5976 35.7712 36.2071 36.1617C35.8166 36.5522 35.1834 36.5522 34.7929 36.1617L27.5429 28.9117C27.1524 28.5212 27.1524 27.888 27.5429 27.4975Z" fill="white"/>
</svg>
