<svg width="31" height="21" viewBox="0 0 31 21" fill="none" xmlns="http://www.w3.org/2000/svg">
<path d="M30.5 0L29.5713 2.27047H27.16L22.8175 15.8933H6.26875L0.5 3.40571H21.515L20.81 5.67618H4.26L7.93125 13.6228H20.9662L25.2563 0H30.5ZM11.125 17.0285C10.09 17.0285 9.25 17.7914 9.25 18.7314C9.25 19.6725 10.09 20.4342 11.125 20.4342C12.16 20.4342 13 19.6725 13 18.7314C13 17.7914 12.16 17.0285 11.125 17.0285ZM19.75 9.08189L17.375 17.0285C16.34 17.0285 15.5 17.7903 15.5 18.7314C15.5 19.6725 16.34 20.4342 17.375 20.4342C18.41 20.4342 19.25 19.6725 19.25 18.7314C19.25 17.7914 18.41 17.0285 17.375 17.0285L19.75 9.08189Z" fill="white"/>
</svg>
