<svg width="31" height="23" viewBox="0 0 31 23" fill="none" xmlns="http://www.w3.org/2000/svg">
<path fill-rule="evenodd" clip-rule="evenodd" d="M27.3728 3.20931L2.03171 11.999L5.35873 14.179L19.467 7.03803C20.0458 6.74497 20.746 6.92446 21.0957 7.45566C21.4452 7.98687 21.3131 8.67098 20.7888 9.04686L9.04601 17.4629V20.791L11.5973 19.1666C11.8063 19.0334 12.045 18.9669 12.2835 18.9669C12.5273 18.9669 12.7713 19.0363 12.983 19.1751L16.0264 21.1671L27.3728 3.20931ZM20.2603 8.0053C20.1988 7.91222 20.0581 7.8596 19.9187 7.9302L14.1392 10.8555L14.8692 12.0591L20.2062 8.23411C20.263 8.19333 20.2822 8.15012 20.288 8.12006C20.2937 8.09067 20.2912 8.05221 20.2603 8.0053ZM14.4362 11.4929L5.90347 15.8117C5.49537 16.0184 5.00533 15.9916 4.62425 15.7419L0.690691 13.1645C0.245878 12.8761 -0.00543772 12.3896 0.0196615 11.8762C0.0215029 11.8386 0.024832 11.8008 0.0296817 11.7629C0.0356089 11.7168 0.0436874 11.6713 0.0538318 11.6266C0.166299 11.1309 0.532702 10.725 1.03699 10.5491L28.5559 1.00386C28.9891 0.850956 29.4764 0.978375 29.7703 1.32197C30.0651 1.6671 30.0999 2.15261 29.8575 2.53201L17.407 22.2376C17.183 22.5816 16.8179 22.8264 16.4052 22.909C16.3018 22.9296 16.1967 22.9399 16.0921 22.9399C15.7827 22.9399 15.476 22.8507 15.2185 22.6814L12.2796 20.758L9.29114 22.6607C8.89266 22.9129 8.38591 22.9345 7.96637 22.7178C7.54752 22.5012 7.28728 22.084 7.28728 21.6286V17.2138C7.28728 16.8399 7.47382 16.4829 7.78602 16.259L14.4362 11.4929Z" fill="#1FBD8A"/>
</svg>
