<svg width="30" height="31" viewBox="0 0 30 31" fill="none" xmlns="http://www.w3.org/2000/svg">
<path d="M25.3433 5.19018C22.6395 2.48638 19.0454 0.997559 15.2215 0.997559C15.2212 0.997559 15.2203 0.997559 15.2201 0.997559C13.3289 0.997784 11.4858 1.36397 9.74248 2.08619C7.99895 2.80842 6.43694 3.8527 5.09945 5.19018C2.39588 7.89376 0.907053 11.4885 0.907053 15.312C0.907053 17.5922 1.45723 19.8582 2.4997 21.8771L0.0936163 28.7508C-0.0759623 29.2357 0.0440714 29.7626 0.407551 30.1259C0.661806 30.3804 0.996459 30.5155 1.34057 30.5155C1.48808 30.5155 1.63716 30.4907 1.78265 30.4398L8.65632 28.034C10.6753 29.0765 12.9413 29.6266 15.2215 29.6266C19.045 29.6266 22.6395 28.1376 25.3433 25.434C28.0468 22.7304 29.5359 19.1357 29.5359 15.3122C29.5359 11.4885 28.0471 7.89376 25.3433 5.19018ZM24.1191 24.2098C21.7425 26.5866 18.5824 27.8953 15.2215 27.8953C13.1654 27.8953 11.1228 27.3867 9.31437 26.4242C8.98647 26.2499 8.5989 26.22 8.25096 26.3418L2.00605 28.5274L4.19188 22.2825C4.31371 21.9341 4.28354 21.5465 4.10923 21.2189C3.14693 19.4109 2.6382 17.3683 2.6382 15.312C2.6382 11.951 3.94708 8.79097 6.32366 6.41439C8.70001 4.03804 11.8596 2.72915 15.2203 2.7287H15.2215C18.5826 2.7287 21.7425 4.03759 24.1191 6.41439C26.4959 8.79097 27.8047 11.9508 27.8047 15.312C27.8047 18.6731 26.4959 21.8332 24.1191 24.2098Z" fill="#1FBD8A"/>
<path d="M20.5413 16.5908C19.8828 15.9323 18.8113 15.9323 18.1528 16.5908L17.4326 17.311C15.6442 16.3365 14.1971 14.8894 13.2224 13.101L13.9426 12.3808C14.6013 11.7223 14.6013 10.6508 13.9426 9.9923L12.0018 8.05149C11.3433 7.39299 10.2718 7.39299 9.61326 8.05149L8.06071 9.60405C7.17137 10.4934 7.12701 12.0223 7.93572 13.9093C8.6379 15.5476 9.92292 17.3484 11.5541 18.9795C13.1852 20.6107 14.986 21.8957 16.6243 22.5979C17.5209 22.9821 18.3363 23.1737 19.041 23.1737C19.8195 23.1737 20.4627 22.9397 20.9295 22.4729L22.4821 20.9201V20.9203C22.8012 20.6012 22.9769 20.1772 22.9769 19.7261C22.9769 19.2748 22.8012 18.8507 22.4821 18.5318L20.5413 16.5908ZM19.7053 21.2487C19.4515 21.5025 18.671 21.5914 17.3065 21.0068C15.8656 20.3893 14.2574 19.2344 12.7783 17.7553C11.2991 16.2762 10.1445 14.6682 9.52701 13.2274C8.94215 11.8628 9.03111 11.0821 9.28492 10.8283L10.8077 9.30543L12.6887 11.1866L11.7872 12.0883C11.3795 12.4959 11.2811 13.1141 11.5426 13.6266C12.7278 15.9507 14.5828 17.8058 16.9069 18.991C17.4197 19.2525 18.0379 19.1543 18.4455 18.7464L19.347 17.8449L21.2282 19.7261L19.7053 21.2487Z" fill="#1FBD8A"/>
</svg>
