<svg width="31" height="31" viewBox="0 0 31 31" fill="none" xmlns="http://www.w3.org/2000/svg">
<path d="M22.0097 1.45166H22.5097C26.6395 1.45166 29.9999 4.81214 29.9999 8.94188V22.4795C29.9999 26.6091 26.6395 29.9695 22.5099 29.9695H8.97228C4.84253 29.9695 1.48206 26.6091 1.48206 22.4795V8.94188C1.48206 4.81214 4.84254 1.45166 8.97228 1.45166H22.0097ZM22.5097 29.2391C26.2375 29.2391 29.2695 26.2072 29.2695 22.4795V8.94188C29.2695 5.21406 26.2376 2.18212 22.5099 2.18212H8.97228C5.24444 2.18212 2.21252 5.21405 2.21252 8.94188V22.4795C2.21252 26.2072 5.24445 29.2391 8.97228 29.2391H22.5097Z" fill="white" stroke="white"/>
<path d="M8.16992 15.7107C8.16992 11.5364 11.5667 8.13965 15.741 8.13965C19.9153 8.13965 23.3121 11.5364 23.3121 15.7107C23.3121 19.8851 19.9153 23.2818 15.741 23.2818C11.5667 23.2818 8.16992 19.8851 8.16992 15.7107ZM8.90039 15.7107C8.90039 19.4832 11.9688 22.5513 15.741 22.5513C19.5134 22.5513 22.5816 19.4831 22.5816 15.7107C22.5816 11.9385 19.5134 8.87011 15.741 8.87011C11.9688 8.87011 8.90039 11.9385 8.90039 15.7107Z" fill="white" stroke="white"/>
<path d="M22.1201 7.15786C22.1201 6.119 22.966 5.27295 24.005 5.27295C25.0441 5.27295 25.8902 6.11887 25.8902 7.15786C25.8902 8.1969 25.0441 9.04299 24.005 9.04299C22.966 9.04299 22.1201 8.19697 22.1201 7.15786ZM22.8506 7.15786C22.8506 7.79477 23.3681 8.3123 24.005 8.3123C24.6421 8.3123 25.1597 7.79489 25.1597 7.15786C25.1597 6.52049 24.6419 6.00341 24.005 6.00341C23.3682 6.00341 22.8506 6.5206 22.8506 7.15786Z" fill="white" stroke="white"/>
</svg>
