<svg width="31" height="23" viewBox="0 0 31 23" fill="none" xmlns="http://www.w3.org/2000/svg">
<path d="M12.7654 19.6629L13.0355 19.8396L15.9743 21.763L15.9753 21.7636C16.1487 21.8777 16.3593 21.9399 16.5742 21.9399C16.6459 21.9399 16.7181 21.9329 16.7892 21.9187C17.0725 21.862 17.3195 21.6943 17.4684 21.4673L29.9169 1.76494L29.9182 1.76282C30.0409 1.57071 30.0255 1.32616 29.8722 1.14671L12.7654 19.6629ZM12.7654 19.6629L12.4932 19.8362M12.7654 19.6629L12.4932 19.8362M12.4932 19.8362L9.5058 21.7382C9.50563 21.7383 9.50546 21.7384 9.50529 21.7385C9.25755 21.8951 8.94031 21.909 8.67811 21.7737L12.4932 19.8362ZM16.2347 21.0854L16.6598 21.3637L16.9312 20.9341L28.2775 2.97638L29.0405 1.76883L27.691 2.23692L2.34991 11.0266L1.38911 11.3599L2.23973 11.9173L5.56675 14.0972L5.8086 14.2557L6.06658 14.1251L20.1748 6.98414L20.1749 6.98412C20.5341 6.80225 20.9546 6.91838 21.1601 7.23061C21.3584 7.5321 21.2911 7.91709 20.9796 8.14046C20.9795 8.14047 20.9795 8.14048 20.9795 8.14049L9.2368 16.5565L9.02806 16.7061V16.9629V20.291V21.202L9.79659 20.7127L12.3479 19.0884L12.3481 19.0883C12.4748 19.0075 12.62 18.9669 12.7656 18.9669C12.9147 18.9669 13.0629 19.0093 13.1909 19.0933L13.1912 19.0935L16.2347 21.0854Z" fill="white" stroke="white"/>
</svg>
