<svg width="1312" height="800" viewBox="0 0 1312 800" fill="none" xmlns="http://www.w3.org/2000/svg">
<path fill-rule="evenodd" clip-rule="evenodd" d="M166.239 793.936C168.968 795.552 171.505 797.488 173.971 799.344L174.828 800H172.082C169.913 798.336 167.656 796.688 165.294 795.28C153.347 788.24 137.095 786.992 116.96 791.584C110.995 792.944 105.012 794.688 99.2222 796.368C94.9363 797.6 90.563 798.88 86.1547 800H79.2623C85.8573 798.576 92.3473 796.688 98.6974 794.848C104.505 793.152 110.523 791.408 116.541 790.032C137.148 785.328 153.871 786.64 166.239 793.936ZM223.6 708.48C226.469 712.464 227.728 717.136 228.953 721.664C229.32 723.04 229.687 724.4 230.09 725.744C235.583 743.76 249.77 758.064 267.123 763.104C271.374 764.336 275.87 765.056 280.208 765.744C283.549 766.272 287.013 766.816 290.372 767.6C299.906 769.824 306.851 773.92 310.437 779.456C314.723 786.08 313.9 793.504 311.399 800H309.562C312.081 793.744 313.026 786.576 308.932 780.272C304.699 773.744 296.267 770.624 289.935 769.152C286.646 768.384 283.217 767.84 279.911 767.312C275.503 766.624 270.954 765.904 266.598 764.64C248.685 759.44 234.043 744.704 228.41 726.176C227.991 724.816 227.623 723.44 227.256 722.048C226.066 717.664 224.842 713.104 222.148 709.36C215.693 700.432 202.328 698.144 191.954 699.856C182.527 701.411 173.82 705.642 165.43 709.956L163.423 710.992L160.466 712.496C122.366 731.952 65.1452 753.44 0 752.144V750.56C64.7778 751.856 121.701 730.464 159.627 711.104L162.548 709.584C171.697 704.88 181.161 700 191.639 698.288C202.59 696.48 216.707 698.944 223.6 708.48ZM308.792 445.488C332.321 450.976 358.578 465.04 361.71 488.064C363.284 499.696 358.578 510.912 354.432 520.816L329.329 580.72C320.74 601.216 311.014 624.432 315.125 647.504C319.603 672.576 341.645 694.016 368.707 699.648C376.771 701.328 385.466 701.76 393.88 702.192C408.994 702.944 424.616 703.728 437.508 711.648C457.748 724.08 461.684 748.208 462.226 761.488C462.874 777.76 459.48 790.048 451.818 799.072C451.555 799.376 451.293 799.696 450.996 800H444.068C445.363 798.688 446.57 797.408 447.672 796.128C454.547 788.032 457.591 776.752 456.978 761.664C456.471 749.296 452.902 726.88 434.587 715.632C422.901 708.448 408.662 707.744 393.583 706.976C384.958 706.544 376.037 706.096 367.552 704.336C338.444 698.272 314.758 675.232 309.947 648.272C305.609 623.936 316.035 599.024 324.431 578.992L349.534 519.104C353.453 509.728 357.914 499.104 356.497 488.656C353.698 468.032 329.347 455.232 307.498 450.144C258.261 438.656 206.575 448.036 157.121 460.344L153.864 461.159L150.613 461.982C150.072 462.12 149.531 462.258 148.991 462.396L145.751 463.228C144.672 463.506 143.594 463.785 142.518 464.064C115.561 471.056 91.4726 477.824 69.7459 490C64.358 493.008 59.04 496.416 53.897 499.712C43.6809 506.272 33.1149 513.04 21.1844 517.296C14.7819 519.584 7.41717 521.008 0 521.152V516.368C6.71744 516.224 13.4524 514.912 19.2777 512.832C30.6133 508.784 40.9169 502.176 50.8881 495.792C56.1011 492.448 61.4716 488.992 66.9995 485.904C89.286 473.44 114.756 466.272 141.084 459.44C144.898 458.45 148.729 457.467 152.574 456.499L155.874 455.673C205.968 443.214 258.409 433.738 308.792 445.488ZM816.851 660.624C824.828 663.904 830.758 671.968 832.298 681.68C833.483 689.156 832.298 696.707 830.864 704.082L830.468 706.088C830.402 706.422 830.335 706.755 830.269 707.088L830.199 707.424C824.163 737.504 819.108 771.408 832.07 800H830.199C817.393 771.136 822.449 737.248 828.467 707.136L828.537 706.8C830.181 698.608 831.878 690.144 830.566 681.92C829.429 674.72 825.038 665.728 816.134 662.096C804.466 657.312 791.153 663.44 779.415 668.864L778.173 669.44C731.624 690.848 677.114 696.064 629.008 700.672C609.293 702.56 587.356 705.808 576.58 720.528C569.848 729.712 569.131 741.258 568.838 752.641L568.797 754.305C568.791 754.582 568.785 754.859 568.778 755.136L568.743 757.136C568.376 771.44 567.151 785.792 565.052 800H563.285C565.385 785.776 566.627 771.408 566.994 757.104L567.029 755.104C567.049 754.277 567.068 753.449 567.09 752.619L567.137 750.959C567.478 739.888 568.442 728.748 575.128 719.632C586.324 704.336 608.716 701.008 628.833 699.088C676.782 694.496 731.134 689.296 777.386 668L778.628 667.424C790.716 661.856 804.413 655.536 816.851 660.624ZM787.655 720.544C789.946 723.856 790.209 727.936 790.174 731.104C790.104 738.224 788.127 745.28 786.028 752.752L785.655 754.081C781.621 768.499 777.883 783.391 788.337 800H786.325C776.465 783.737 779.681 769.155 783.573 755.072L783.951 753.71C784.078 753.257 784.204 752.804 784.331 752.352C786.395 744.976 788.355 738.016 788.425 731.088C788.46 728.128 788.232 724.368 786.185 721.392C782.179 715.6 773.258 714.384 758.896 717.648C724.102 725.568 688.293 730.16 652.449 731.28C637.352 731.744 620.244 732.288 610.01 742.336C600.704 751.472 600.319 765.792 601.036 777.264L601.228 780.272C601.666 786.848 602.121 793.552 601.368 800H599.584C600.354 793.616 599.916 786.928 599.479 780.368L599.287 777.36C598.552 765.568 598.972 750.816 608.733 741.232C619.474 730.704 636.95 730.16 652.396 729.68C688.1 728.56 723.804 724 758.476 716.096C764.056 714.816 781.042 710.96 787.655 720.544ZM329.19 422.992C353.505 429.12 370.246 437.36 381.862 448.944C391.256 458.304 411.653 485.584 398.008 536.336C394.055 550.992 388.142 565.328 382.404 579.216C376.509 593.456 370.421 608.192 366.52 623.216C364.544 630.784 363.039 639.504 366.695 646.848C369.109 651.664 373.693 655.872 380.725 659.728C392.622 666.254 406.463 669.461 420.015 672.363L422.814 672.96C438.418 676.288 454.564 679.728 468.052 687.968C487.469 699.824 500.642 721.632 504.175 747.792C506.537 765.248 504.788 782.784 502.024 800H500.257C503.021 782.816 504.788 765.328 502.444 747.984C498.962 722.288 486.07 700.896 467.072 689.296C453.865 681.232 437.876 677.824 422.429 674.528C407.857 671.424 392.778 668.208 379.833 661.104C372.486 657.072 367.657 652.624 365.103 647.52C361.22 639.728 362.777 630.672 364.823 622.848C368.759 607.728 374.865 592.944 380.76 578.64C386.48 564.816 392.393 550.512 396.294 535.952C409.746 485.952 389.769 459.2 380.567 450.016C369.197 438.672 352.718 430.576 328.717 424.544C259.251 407.04 179.674 414.368 78.3002 447.584L72.16 449.616L70.7037 450.096L67.7851 451.057C45.8646 458.257 23.2552 465.23 0 465.2V463.6C23.5205 463.646 46.4305 456.389 68.6684 449.067L71.5652 448.112L77.7229 446.08C179.447 412.752 259.356 405.408 329.19 422.992ZM1250.72 283.312C1259 284.464 1266.29 288.352 1273.34 292.112C1277.36 294.256 1281.51 296.464 1285.8 298.144C1293.98 301.344 1303.08 302.592 1312 301.936V303.536C1302.83 304.192 1293.51 302.912 1285.11 299.616C1280.72 297.904 1276.52 295.664 1272.47 293.488C1265.24 289.632 1258.4 286 1250.46 284.896C1230.48 282.112 1213.11 296.416 1200.2 309.184C1180.57 328.464 1162.15 349.44 1145.48 371.536C1137.7 381.84 1129.12 393.952 1125.71 407.344C1124.89 410.576 1124.3 414.112 1123.86 418.448C1123.58 421.2 1123.39 424.016 1123.19 426.752C1122.97 430 1122.74 433.36 1122.35 436.656C1118.19 472.912 1094.63 508.384 1059.31 531.552C1055.81 533.84 1052.19 536.016 1048.55 538.016C1046.75 538.992 1044.91 539.968 1043.06 540.96C1042.58 541.212 1042.1 541.465 1041.62 541.718L1040.19 542.48L1038.76 543.247L1037.33 544.022C1027.12 549.606 1017.5 555.895 1013.25 565.824C1008.28 577.392 1012.39 589.104 1016.76 601.504C1019.28 608.688 1021.91 616.128 1022.63 623.584C1023.36 631.248 1022.07 638.992 1020.54 646.224C1020.19 647.872 1019.83 649.536 1019.46 651.184C1018.58 655.184 1017.67 659.312 1017.03 663.376C1015.56 672.592 1015.44 682.144 1016.68 691.808C1020.81 723.808 1039.47 753.456 1066.62 771.12C1082.36 781.408 1099.6 790.912 1118.98 800H1115.16C1096.92 791.312 1080.6 782.224 1065.61 772.432C1038.05 754.512 1019.13 724.432 1014.95 691.984C1013.69 682.192 1013.81 672.496 1015.3 663.152C1015.94 659.04 1016.85 654.896 1017.74 650.864C1018.11 649.216 1018.48 647.568 1018.83 645.92C1020.56 637.696 1021.56 630.768 1020.88 623.728C1020.18 616.448 1017.59 609.088 1015.1 601.984C1010.83 589.872 1006.43 577.328 1011.6 565.232C1016.58 553.653 1028.29 546.947 1040.03 540.709L1041.46 539.948C1041.7 539.821 1041.94 539.694 1042.18 539.568C1044.02 538.592 1045.86 537.616 1047.66 536.64C1051.26 534.672 1054.83 532.512 1058.29 530.256C1093.19 507.344 1116.49 472.304 1120.62 436.496C1120.99 433.232 1121.24 429.888 1121.45 426.64C1121.64 423.904 1121.83 421.072 1122.13 418.288C1122.56 413.888 1123.18 410.288 1124.02 406.976C1127.48 393.328 1136.17 381.056 1144.05 370.624C1160.77 348.464 1179.23 327.44 1198.92 308.096C1212.11 295.04 1229.96 280.416 1250.72 283.312ZM250.924 662.928C254.633 669.136 254.843 676.304 255.053 683.248C255.175 687.776 255.315 692.448 256.417 696.8C259.496 708.944 269.695 719.408 288.553 729.76C300.57 736.368 313.323 741.968 326.478 746.448L329.942 747.6C344.496 752.48 361.01 758.016 367.622 771.136C371.523 778.912 371.191 788.8 366.73 797.584C366.31 798.4 365.873 799.2 365.383 800H363.372C364.036 798.976 364.614 797.952 365.138 796.912C369.389 788.544 369.722 779.152 366.031 771.808C359.733 759.28 344.286 754.112 329.329 749.104L325.866 747.936C312.623 743.44 299.766 737.792 287.643 731.136C268.365 720.544 257.904 709.744 254.72 697.168C253.566 692.656 253.426 687.888 253.303 683.296C253.094 676.224 252.901 669.552 249.385 663.68C242.283 651.76 224.265 649.2 210.917 652.848C199.389 655.984 189.365 662.704 179.674 669.2C177.435 670.688 175.196 672.192 172.939 673.632C147.469 690.08 116.96 702.96 76.9182 714.144C53.5296 720.688 26.7998 726.688 0 724.8V723.184C26.5549 725.088 53.1273 719.104 76.3934 712.608C116.261 701.472 146.612 688.672 171.942 672.336C174.181 670.88 176.403 669.392 178.642 667.904C188.456 661.328 198.602 654.528 210.41 651.312C224.422 647.488 243.367 650.256 250.924 662.928ZM746.615 759.056C748.155 760.496 748.54 762.544 748.715 764.176C749.414 770.928 747.613 777.792 745.881 784.448C744.464 789.824 743.117 795.008 743.029 800H741.297C741.385 794.736 742.802 789.344 744.184 784.064C745.881 777.552 747.648 770.8 746.983 764.336C746.825 762.96 746.528 761.248 745.373 760.176C743.467 758.384 740.108 758.848 737.134 759.408C722.492 762.208 707.518 763.6 692.544 763.488C690.427 763.472 688.293 763.44 686.141 763.392C674.683 763.184 662.84 762.96 652.396 767.04C646.326 769.408 642.093 772.992 640.483 777.104C639.504 779.632 639.434 782.416 639.364 785.104L638.979 800H637.23L637.614 785.072C637.684 782.384 637.754 779.344 638.839 776.576C640.623 772.032 645.189 768.128 651.697 765.568C661.852 761.615 673.089 761.573 684.057 761.755L686.176 761.792C688.31 761.84 690.444 761.872 692.561 761.888C707.395 761.968 722.265 760.608 736.767 757.856C739.251 757.376 743.886 756.496 746.615 759.056ZM1265.01 313.232C1272.08 314.128 1278.34 317.216 1284.41 320.208C1287.88 321.904 1291.46 323.68 1295.14 324.992C1300.52 326.928 1306.24 327.952 1312 328.064V329.664C1306.03 329.552 1300.07 328.496 1294.49 326.48C1290.71 325.12 1287.09 323.344 1283.59 321.616C1277.38 318.56 1271.52 315.68 1264.77 314.816C1247.94 312.672 1232.84 324.256 1221.59 334.592C1204.01 350.752 1187.83 368.368 1173.52 386.912C1166.82 395.616 1159.39 405.856 1156.17 417.424C1155.42 420.192 1154.82 423.2 1154.35 426.88C1154.04 429.344 1153.79 431.856 1153.55 434.288C1153.3 436.96 1153.02 439.728 1152.65 442.432C1148.45 473.296 1129.05 504.16 1100.75 524.992C1097.93 527.072 1095.01 529.04 1092.09 530.864C1090.57 531.824 1088.98 532.784 1087.4 533.744L1086.73 534.152L1085.37 534.971L1084.01 535.796C1075.44 541.047 1067.17 546.809 1063.37 555.632C1059.39 564.831 1061.61 574.058 1064.38 583.752L1064.79 585.174C1064.86 585.412 1064.93 585.65 1064.99 585.888C1066.76 591.952 1068.56 598.24 1068.91 604.544C1069.26 611.168 1067.97 617.664 1066.64 623.776L1065.92 626.944C1065.08 630.688 1064.21 634.576 1063.59 638.4C1062.37 646.192 1062.27 654.352 1063.28 662.656C1066.69 690.72 1081.74 715.584 1104.58 730.88C1120.43 741.584 1138.57 751.072 1161.68 760.768C1201.51 777.456 1246.47 790.624 1295.71 800H1287.37C1241.12 790.72 1198.75 778.064 1160.95 762.224C1137.73 752.48 1119.49 742.944 1103.55 732.176C1080.32 716.608 1065.01 691.328 1061.55 662.832C1060.52 654.4 1060.62 646.096 1061.86 638.176C1062.48 634.304 1063.37 630.4 1064.21 626.608L1064.92 623.456C1066.24 617.456 1067.5 611.056 1067.16 604.624C1066.83 598.48 1065.05 592.288 1063.31 586.304C1063.11 585.604 1062.91 584.902 1062.71 584.198L1062.31 582.789C1059.74 573.621 1057.77 564.23 1061.74 555.04C1066.24 544.576 1076.5 538.4 1086.42 532.4C1088.02 531.456 1089.59 530.512 1091.11 529.552C1094 527.744 1096.87 525.792 1099.67 523.744C1127.6 503.168 1146.78 472.688 1150.92 442.24C1151.29 439.552 1151.55 436.8 1151.81 434.144C1152.04 431.712 1152.29 429.184 1152.62 426.704C1153.11 422.944 1153.69 419.872 1154.49 417.04C1157.78 405.2 1165.3 394.8 1172.09 386C1186.47 367.36 1202.7 349.696 1220.35 333.456C1231.9 322.864 1247.4 310.976 1265.01 313.232ZM700.048 790.288C703.284 792.912 705.261 796.416 706.678 800H704.806C703.494 796.816 701.675 793.76 698.876 791.488C696.147 789.264 692.001 788.208 688.363 788.784C686.491 789.088 683.954 789.952 682.52 792.368C681.243 794.496 681.243 797.088 681.418 799.36L681.47 800H679.721L679.668 799.472C679.494 796.976 679.494 794.08 680.98 791.6C682.362 789.28 684.881 787.712 688.065 787.216C692.229 786.544 696.917 787.76 700.048 790.288ZM1236.41 253.392C1245.91 254.784 1254.22 259.472 1262.27 264.016C1266.83 266.592 1271.57 269.264 1276.45 271.296C1287.53 275.888 1300.03 277.216 1312 275.456V277.088C1299.77 278.832 1287.02 277.44 1275.74 272.752C1270.75 270.672 1265.96 267.984 1261.34 265.376L1260.49 264.899L1258.79 263.945C1251.69 259.978 1244.3 256.176 1236.15 254.976C1225.02 253.328 1206.99 254.544 1178.79 283.792C1156.78 306.624 1136.14 330.976 1117.44 356.16C1108.19 368.624 1098.86 382.064 1095.26 397.248C1093.54 404.448 1093.18 411.968 1092.83 419.248C1092.63 423.056 1092.44 427.008 1092.06 430.896C1087.49 477.056 1054.13 520.832 1005.01 545.152C1002.95 546.176 1000.83 547.184 998.712 548.208C998.197 548.454 997.683 548.7 997.167 548.947L995.622 549.689C981.972 556.266 968.498 563.429 963.13 576C957.445 589.28 962.833 602.8 968.518 617.12C971.825 625.424 975.236 634.016 976.355 642.64C977.755 653.6 975.358 664.624 973.032 675.28C972.104 679.568 971.142 684 970.443 688.352C963.918 729.056 980.886 771.872 1013.42 800H1010.87C978.822 771.488 962.186 728.768 968.711 688.128C969.411 683.728 970.39 679.28 971.317 674.96C973.626 664.432 975.988 653.536 974.606 642.832C973.521 634.4 970.145 625.888 966.874 617.664C961.329 603.696 955.591 589.264 961.486 575.424C966.881 562.801 979.855 555.54 993.248 549.019L994.795 548.269C995.827 547.772 996.859 547.277 997.89 546.784C1000.01 545.776 1002.12 544.752 1004.19 543.744C1052.78 519.68 1085.79 476.384 1090.32 430.752C1090.69 426.912 1090.88 422.976 1091.08 419.168C1091.44 411.824 1091.81 404.24 1093.54 396.912C1097.22 381.44 1106.65 367.856 1115.99 355.264C1134.74 330.016 1155.43 305.616 1177.48 282.736C1206.25 252.88 1224.9 251.696 1236.41 253.392ZM865.518 604.72C866.235 608.144 865.5 611.568 864.783 614.88C864.311 617.04 863.838 619.264 863.768 621.424C863.611 627.952 867.022 633.696 870.643 639.776C872.987 643.712 875.419 647.776 876.783 652.112C880.091 662.474 877.202 673.049 873.393 683.406L872.83 684.92C872.546 685.676 872.258 686.431 871.968 687.184L871.388 688.689C871.292 688.94 871.195 689.19 871.098 689.44C870.276 691.584 869.471 693.696 868.701 695.808C856.474 729.392 857.856 767.008 871.92 800H870.031C856.071 766.8 854.759 729.024 867.04 695.296C867.809 693.184 868.631 691.056 869.454 688.912C874.089 676.88 878.9 664.448 875.104 652.56C873.792 648.4 871.413 644.4 869.104 640.528C865.535 634.544 861.844 628.336 862.019 621.392C862.089 619.088 862.579 616.784 863.069 614.576C863.786 611.264 864.468 608.144 863.803 605.024C862.019 596.672 850.701 592.4 841.674 593.824C832.823 595.2 825.213 600.32 817.848 605.248L816.396 606.224C769.304 637.68 713.92 658.48 656.227 666.336C649.842 667.216 643.3 667.936 636.967 668.656C618.337 670.736 599.077 672.88 581.286 678.896C570.248 682.64 550.708 691.44 543.99 708.336C540.577 716.899 540.934 726.265 541.735 735.479L541.906 737.382L542.083 739.28C542.258 741.264 542.451 743.248 542.591 745.2C544.008 763.504 542.381 782.064 537.868 800H536.066C540.614 782.112 542.258 763.568 540.859 745.312C540.701 743.36 540.527 741.392 540.334 739.424L540.157 737.494C539.248 727.507 538.566 717.261 542.346 707.792C549.308 690.288 569.356 681.232 580.691 677.408C598.657 671.312 618.022 669.152 636.757 667.056C643.072 666.352 649.597 665.632 655.965 664.752C713.378 656.928 768.5 636.24 815.364 604.928L816.816 603.952C824.338 598.912 832.123 593.696 841.394 592.24C851.401 590.688 863.506 595.312 865.518 604.72ZM429.059 0L401.787 55.552C398.586 62.032 394.982 69.392 395.139 76.768C395.314 85.936 400.895 93.888 406.807 102.288C409.187 105.664 411.636 109.152 413.7 112.72C419.298 122.4 422.114 132.976 423.951 141.12C430.686 171.184 430.913 203.024 424.563 233.168C423.951 236.064 423.286 238.96 422.621 241.856C420.242 252.08 417.811 262.656 418.266 273.072C418.598 280.352 420.347 287.728 422.062 294.848C423.811 302.16 425.613 309.712 425.963 317.408C426.085 320.032 426.033 322.704 425.98 325.28C425.875 331.84 425.753 338.048 428.167 343.712C431.963 352.608 440.902 358.064 450.348 363.856C457.713 368.352 465.323 373.008 470.711 379.536C474.052 383.568 476.396 388.144 478.653 392.576C481.504 398.16 484.198 403.424 488.641 407.456C497.475 415.488 511.225 416.928 524.555 417.696C556.533 419.568 588.966 420.288 620.961 419.824C639.836 419.568 658.134 418.784 674.525 412.208C678.776 410.496 682.975 408.336 687.033 406.272C693.541 402.944 700.258 399.504 707.675 397.568C725.396 392.96 744.481 397.696 759.823 401.488C799.673 411.36 840.1 423.68 858.17 455.616C863.926 465.792 866.882 477.408 869.751 488.624C874.317 506.448 878.62 523.28 893.157 533.776C897.111 536.624 901.834 538.944 906.4 541.184C914.936 545.376 923.77 549.712 928.599 557.792C934.109 567.008 932.36 577.424 930.645 587.488C929.911 591.904 929.141 596.464 929.018 600.768C928.791 609.872 931.45 618.608 934.284 627.84C936.191 634.112 938.167 640.592 939.147 647.2C941.806 665.056 937.048 682.8 932.447 699.936C928.896 713.232 925.205 726.976 925.065 740.592C924.838 762.416 934.091 783.904 950.01 800H943.101C928.161 783.424 919.59 762.128 919.817 740.544C919.957 726.384 923.718 712.352 927.357 698.8C932.045 681.312 936.471 664.8 933.952 647.84C933.024 641.568 931.083 635.248 929.228 629.136C926.429 619.968 923.526 610.48 923.77 600.656C923.893 596.032 924.698 591.312 925.467 586.752C927.112 577.056 928.651 567.888 923.998 560.096C919.904 553.264 912.137 549.456 903.915 545.408C899.157 543.072 894.207 540.656 889.921 537.536C875.463 527.116 870.225 511.071 865.983 494.917L865.531 493.186C865.233 492.032 864.938 490.879 864.643 489.728C861.844 478.784 858.958 467.472 853.5 457.824C837.605 429.731 802.556 417.468 766.574 408.18L764.251 407.585C762.702 407.191 761.152 406.802 759.603 406.416L758.441 406.128C743.729 402.48 725.431 397.952 709.127 402.192C702.287 403.968 696.13 407.12 689.605 410.464C685.424 412.592 681.12 414.8 676.625 416.592C660.143 423.22 642.196 424.265 623.695 424.583L621.048 424.624C588.913 425.088 556.323 424.368 524.223 422.496C509.896 421.648 495.061 420.064 484.95 410.864C479.842 406.224 476.833 400.32 473.912 394.608C471.655 390.208 469.539 386.064 466.53 382.432C461.667 376.544 454.424 372.128 447.444 367.84C437.718 361.904 427.677 355.744 423.286 345.456C420.487 338.912 420.627 331.936 420.732 325.2C420.785 322.688 420.837 320.096 420.715 317.6C420.382 310.336 418.633 302.976 416.936 295.872C415.187 288.544 413.367 280.976 413.018 273.264C412.528 262.256 415.047 251.376 417.478 240.864C418.143 238 418.808 235.12 419.42 232.256C425.63 202.72 425.42 171.536 418.808 142.08C417.041 134.256 414.347 124.112 409.064 114.96C407.087 111.584 404.708 108.176 402.399 104.88C396.346 96.288 390.101 87.392 389.891 76.864C389.716 68.4 393.582 60.528 396.994 53.584L423.304 0H429.059ZM189.855 747.488C194.072 750.641 196.423 755.139 198.564 759.626L199.144 760.848C200.666 764.064 202.24 767.376 204.427 770.192C209.195 776.3 216.766 779.968 224.283 783.37L225.891 784.096C227.116 784.64 228.323 785.184 229.513 785.744C233.274 787.472 237.507 789.632 239.904 793.232C241.321 795.344 241.968 797.744 242.335 800H240.568C240.218 797.984 239.624 795.872 238.417 794.064C236.247 790.832 232.276 788.8 228.725 787.168C227.536 786.624 226.329 786.08 225.122 785.536C216.882 781.824 208.363 778 203.01 771.12C200.701 768.16 199.092 764.768 197.535 761.472C195.208 756.56 193.021 751.92 188.753 748.736C183.75 745.008 175.983 743.824 167.988 745.584C161.831 746.928 156.058 749.696 150.478 752.368C149.481 752.848 148.501 753.312 147.521 753.776C101.199 775.536 48.579 781.664 0 785.472V783.872C48.3866 780.064 100.727 773.952 146.717 752.352C147.696 751.888 148.676 751.424 149.655 750.944C155.341 748.24 161.219 745.424 167.586 744.032C176.228 742.128 184.345 743.392 189.855 747.488ZM271.671 477.84C295.83 481.392 309.877 496.112 313.096 509.136C316.384 522.432 310.682 535.664 305.171 548.464L304.314 550.464C286.593 591.84 281.293 626.96 288.115 657.808C298.104 702.944 333.283 728.848 363.721 734.512C366.59 735.056 369.582 735.456 372.486 735.84C379.395 736.784 386.533 737.76 392.97 740.576C407.752 747.088 417.024 763.552 415.502 780.624C414.924 787.04 412.965 793.536 409.711 800H407.787C410.866 794.064 413.123 787.504 413.752 780.496C415.222 764.064 406.37 748.24 392.201 742.016C386.025 739.296 379.011 738.352 372.223 737.424C369.302 737.04 366.293 736.624 363.372 736.08C344.461 732.56 327.038 722.832 312.956 707.936C299.888 694.096 290.459 676.416 286.401 658.128C279.508 626.96 284.826 591.552 302.687 549.872L303.544 547.872C303.883 547.086 304.223 546.298 304.561 545.509L305.234 543.929C310.035 532.591 314.22 520.969 311.399 509.488C308.302 496.992 294.745 482.848 271.392 479.408C258.482 477.52 245.257 479.68 232.469 481.792C228.131 482.496 223.67 483.232 219.279 483.792C200.649 486.192 182.018 489.936 163.895 494.96C127.334 505.088 93.047 520.176 61.9614 539.808C60.387 540.784 58.8301 541.792 57.2557 542.8L55.2271 544.101C45.0583 550.606 34.4783 557.075 22.3915 560C15.0793 561.776 7.62709 562.16 0 562.304V560.704C7.48715 560.56 14.8169 560.176 21.9541 558.464C34.5493 555.408 45.5876 548.336 56.2586 541.488C57.833 540.48 59.3899 539.472 60.9643 538.48C92.2074 518.768 126.652 503.616 163.388 493.44C181.598 488.384 200.316 484.608 219.034 482.208C223.39 481.648 227.851 480.928 232.154 480.208C245.082 478.08 258.464 475.888 271.671 477.84ZM1279.3 343.152C1285.15 343.792 1290.4 346.08 1295.47 348.288C1298.37 349.568 1301.38 350.88 1304.44 351.84C1306.89 352.624 1309.43 353.184 1312 353.52V355.136C1309.24 354.784 1306.51 354.192 1303.88 353.36C1300.72 352.352 1297.67 351.024 1294.72 349.744C1289.54 347.488 1284.66 345.36 1279.09 344.736C1265.19 343.184 1252.51 352.08 1242.99 360C1227.7 372.704 1213.76 386.944 1201.56 402.288C1195.53 409.888 1189.55 418.208 1186.64 427.52C1185.93 429.84 1185.35 432.32 1184.82 435.328C1184.46 437.52 1184.16 439.712 1183.86 441.92C1183.58 444.016 1183.3 446.112 1182.95 448.208C1178.65 474.08 1163.8 499.664 1142.21 518.4C1140.04 520.288 1137.84 522.08 1135.67 523.712C1134.37 524.672 1133.06 525.632 1131.73 526.592C1124.51 531.824 1117.04 537.248 1113.49 545.44C1109.93 553.616 1111.54 561.728 1113.24 570.304C1114.22 575.248 1115.23 580.368 1115.18 585.52C1115.13 590.624 1114.05 595.696 1112.73 601.328L1112.51 602.288C1111.65 605.936 1110.76 609.712 1110.18 613.424C1109.2 619.776 1109.09 626.528 1109.88 633.52C1112.51 657.088 1124.42 677.904 1142.54 690.656C1155.1 699.472 1170.39 707.312 1190.65 715.312C1226.81 729.552 1267.53 740.56 1312 748.064V749.696C1267.29 742.16 1226.32 731.104 1189.97 716.768C1169.55 708.72 1154.14 700.832 1141.47 691.92C1122.97 678.912 1110.81 657.68 1108.13 633.68C1107.35 626.576 1107.45 619.68 1108.45 613.2C1109.04 609.424 1109.93 605.632 1110.79 601.952L1111.02 600.992C1112.31 595.456 1113.38 590.464 1113.43 585.504C1113.49 580.496 1112.49 575.456 1111.51 570.592L1111.22 569.101C1109.66 561.136 1108.34 552.95 1111.86 544.848C1115.58 536.256 1123.25 530.704 1130.65 525.344C1131.98 524.384 1133.27 523.44 1134.55 522.48C1136.7 520.864 1138.87 519.104 1141.02 517.248C1162.33 498.752 1176.97 473.504 1181.22 447.968C1181.57 445.888 1181.85 443.808 1182.13 441.728C1182.43 439.504 1182.72 437.296 1183.11 435.088C1183.63 432 1184.21 429.456 1184.96 427.088C1187.94 417.536 1194.02 409.072 1200.15 401.36C1212.41 385.904 1226.44 371.6 1241.8 358.816C1251.6 350.672 1264.73 341.52 1279.3 343.152ZM121.806 548.496C156.81 535.04 229.652 507.056 256.522 520.56C262.103 523.36 265.496 527.824 266.598 533.824C271.881 562.384 233.484 597.6 221.588 607.712C197.622 628.08 168.898 643.376 139.089 658.528C103.053 676.864 62.2063 697.632 17.7207 699.008C16.4262 699.056 15.1317 699.072 13.8722 699.072C8.86912 699.072 4.25088 698.752 0 698.096V696.48C5.28299 697.312 11.1607 697.616 17.6683 697.408C61.734 696.048 102.388 675.376 138.25 657.136C167.953 642.032 196.573 626.8 220.398 606.544C232.137 596.56 270.01 561.872 264.867 534.096C263.852 528.608 260.756 524.528 255.683 521.968C229.565 508.832 157.23 536.624 122.488 549.968C115.106 552.8 109.298 555.04 105.87 556.144C70.7081 567.424 31.1906 580.096 0 602.784V600.736C31.2431 578.384 70.3932 565.808 105.292 554.624C108.669 553.552 114.459 551.312 121.806 548.496ZM1293.6 373.056C1298.2 373.456 1302.4 374.944 1306.45 376.368C1308.27 377.008 1310.13 377.664 1312 378.208V379.888C1309.9 379.296 1307.84 378.56 1305.82 377.872C1301.87 376.464 1297.78 375.04 1293.42 374.656C1282.47 373.712 1272.59 379.568 1264.35 385.424C1251.44 394.592 1239.75 405.456 1229.59 417.68C1225.25 422.928 1219.9 429.936 1217.1 437.632C1216.42 439.472 1215.86 441.424 1215.31 443.808C1214.86 445.776 1214.47 447.744 1214.09 449.728C1213.83 451.152 1213.55 452.576 1213.25 454C1208.91 474.496 1198.14 495.552 1183.7 511.792C1182.22 513.472 1180.71 515.056 1179.26 516.512C1178.21 517.552 1177.14 518.592 1176.06 519.632C1171.3 524.176 1166.39 528.896 1163.6 535.248C1160.74 541.76 1161.08 548.08 1161.45 554.752C1161.66 558.576 1161.89 562.528 1161.45 566.512C1161.05 570.16 1160.14 573.728 1159.16 577.504L1158.81 578.88C1158.04 581.92 1157.25 585.184 1156.76 588.448C1156.03 593.344 1155.92 598.704 1156.48 604.384C1158.36 623.856 1166.88 640.208 1180.5 650.416C1192.64 659.52 1207.09 665.344 1219.64 669.84C1247.69 679.904 1278.68 687.776 1312 693.296V694.928C1278.45 689.376 1247.24 681.456 1218.99 671.328C1206.32 666.784 1191.72 660.896 1179.4 651.648C1165.41 641.168 1156.66 624.432 1154.73 604.528C1154.18 598.736 1154.28 593.248 1155.03 588.224C1155.54 584.896 1156.33 581.6 1157.11 578.512L1157.46 577.136C1158.43 573.408 1159.34 569.888 1159.72 566.352C1160.12 562.48 1159.91 558.592 1159.7 554.832C1159.35 548.272 1158.97 541.488 1161.98 534.656C1164.88 528.016 1169.92 523.184 1174.8 518.528C1175.87 517.488 1176.93 516.464 1177.97 515.44C1179.4 514 1180.87 512.432 1182.34 510.784C1196.6 494.736 1207.25 473.936 1211.52 453.696C1211.83 452.288 1212.1 450.864 1212.38 449.456C1212.76 447.456 1213.15 445.456 1213.6 443.472C1214.16 441.04 1214.74 439.024 1215.44 437.136C1218.31 429.2 1223.76 422.048 1228.21 416.704C1238.44 404.368 1250.25 393.424 1263.28 384.16C1271.78 378.112 1282.02 372.048 1293.6 373.056ZM81.379 590.496C90.9478 587.328 105.747 586.768 115.666 593.04C121.736 596.88 125.007 602.752 125.095 610.016C125.217 618.896 119.532 627.696 107.724 636.896C91.4202 649.616 71.9851 659.424 49.926 666.08C38.013 669.68 27.7444 671.44 18.5079 671.44C14.2921 671.44 10.2686 671.072 6.42005 670.336C4.47829 669.984 2.01173 669.376 0 668.112V666.048C1.8368 667.68 4.65323 668.368 6.76992 668.784C18.7878 671.04 32.3277 669.696 49.3837 664.56C71.2154 657.968 90.458 648.256 106.587 635.68C117.975 626.8 123.45 618.416 123.345 610.032C123.258 603.216 120.337 597.936 114.669 594.352C106.604 589.248 93.1695 588.288 81.9912 592L77.408 593.52C76.966 593.666 76.5237 593.812 76.0811 593.959L73.4224 594.84C54.7943 601.027 35.8613 607.728 20.6771 619.6C10.5135 627.552 3.35872 637.2 0 647.2V642.464C3.88352 633.712 10.566 625.392 19.5401 618.384C27.7969 611.936 37.1034 606.992 46.8471 602.848C56.6084 598.688 66.7895 595.328 76.8132 592.016L81.379 590.496ZM717.419 442.896C724.451 441.44 731.676 441.76 738.674 442.064C751.724 442.64 765.211 443.216 777.649 447.856C809.294 459.616 822.571 494.08 821.539 521.104C821.137 531.472 819.178 540.064 815.539 547.36C811.376 555.744 804.483 563.6 793.83 572.064C757.444 601.04 708.41 614.304 665.289 624.464C613.299 636.704 558.947 647.2 504.665 647.2C478.495 647.2 452.325 644.768 426.47 638.896C420.19 637.472 413.07 635.6 407.822 631.328C401.472 626.128 398.131 617.328 398.9 607.792C399.6 599.248 403.081 591.264 406.458 583.536L428.954 531.984C435.199 517.664 441.672 502.848 452.413 490.464C464.028 477.088 481.084 466.4 501.779 459.536C531.028 449.84 556.498 449.536 589.648 458.48C625.544 468.16 662.91 465.728 694.853 451.664C696.41 450.976 697.967 450.256 699.541 449.536C705.209 446.912 711.086 444.208 717.419 442.896ZM738.586 443.664C731.711 443.36 724.591 443.056 717.804 444.464C711.681 445.728 705.908 448.384 700.328 450.96C698.754 451.696 697.179 452.416 695.605 453.104C663.277 467.344 625.474 469.792 589.14 460.016C573.361 455.76 559.349 453.616 545.827 453.616C531.29 453.616 517.33 456.08 502.374 461.04C481.994 467.792 465.183 478.32 453.777 491.456C443.194 503.648 436.774 518.352 430.563 532.576L408.084 584.128C404.761 591.744 401.332 599.616 400.65 607.904C399.915 616.96 403.029 625.264 408.994 630.128C413.927 634.16 420.54 635.904 426.89 637.344C506.012 655.28 588.021 641.008 664.852 622.912C707.78 612.8 756.587 599.616 792.693 570.864C803.136 562.544 809.889 554.864 813.947 546.704C817.481 539.6 819.405 531.2 819.79 521.056C820.805 494.56 807.86 460.816 777.001 449.328C764.826 444.8 751.496 444.224 738.586 443.664ZM1307.85 402.976C1309.27 403.04 1310.65 403.2 1312 403.408V405.04C1310.62 404.816 1309.2 404.64 1307.77 404.576C1299.3 404.24 1291.52 407.744 1285.67 410.864C1275.23 416.432 1265.78 423.92 1257.63 433.072C1252.85 438.432 1249.64 443.104 1247.54 447.76C1246.91 449.136 1246.35 450.624 1245.79 452.288C1245.12 454.256 1244.55 456.272 1243.99 458.224L1243.53 459.808C1238.95 475.648 1232.44 491.744 1225.22 505.104C1224.45 506.512 1223.68 507.888 1222.89 509.248C1221.98 510.784 1221.02 512.304 1220.04 513.856C1217.83 517.344 1215.54 520.944 1213.72 525.056C1211.54 529.936 1210.61 534.48 1209.63 539.28C1209.07 541.968 1208.51 544.752 1207.7 547.568C1207.28 549.04 1206.8 550.512 1206.31 552.016C1205.83 553.472 1205.34 554.944 1204.91 556.448C1204.17 558.944 1203.66 561.248 1203.35 563.472C1202.84 566.928 1202.75 570.8 1203.07 575.264C1204.17 590.848 1209.37 602.592 1218.48 610.192C1226.84 617.168 1237.9 621.12 1248.59 624.368C1268.44 630.384 1289.68 635.2 1312 638.736V640.336C1289.49 636.8 1268.06 631.952 1248.03 625.888C1237.16 622.592 1225.92 618.544 1217.31 611.376C1207.83 603.488 1202.46 591.376 1201.34 575.36C1201 570.784 1201.09 566.832 1201.62 563.264C1201.95 560.96 1202.47 558.592 1203.21 556.032C1203.66 554.512 1204.14 553.024 1204.63 551.568C1205.12 550.08 1205.59 548.608 1206.01 547.168C1206.8 544.4 1207.35 541.648 1207.91 538.992C1208.86 534.32 1209.86 529.488 1212.1 524.448C1213.97 520.24 1216.29 516.592 1218.52 513.056C1219.5 511.52 1220.46 510 1221.35 508.48C1222.14 507.152 1222.89 505.792 1223.64 504.4C1230.83 491.12 1237.29 475.152 1241.83 459.408L1242.29 457.824C1242.85 455.856 1243.44 453.808 1244.11 451.824C1244.69 450.096 1245.28 448.576 1245.93 447.152C1248.1 442.336 1251.39 437.552 1256.27 432.064C1264.56 422.752 1274.16 415.152 1284.78 409.472C1290.83 406.24 1298.92 402.576 1307.85 402.976ZM699.418 470.88C704.667 469.952 710.124 470.256 714.953 470.528C725.816 471.152 734.79 471.872 743.379 475.12C767.537 484.304 776.529 508.752 774.71 528.912C774.027 536.496 772.296 542.704 769.427 547.888C765.946 554.192 760.418 560.032 752.073 566.272C724.416 586.96 687.628 596.016 652.326 603.536C615.975 611.392 573.974 619.136 531.797 619.136C525.482 619.136 519.185 618.96 512.887 618.592C498.962 617.76 486.612 616.064 475.119 613.376C470.536 612.304 465.305 610.896 461.282 607.68C456.506 603.856 453.9 597.648 454.109 590.64C454.284 584.704 456.244 579.104 458.605 572.896C464.273 558.064 469.276 546.064 474.314 535.152C480.384 522 487.487 511.792 496.006 503.92C501.044 499.264 507.062 495.072 513.849 491.488C520.637 487.888 528.211 484.864 536.363 482.544C559.664 475.904 580.481 475.568 605.987 481.424C632.297 487.472 659.569 485.76 682.782 476.624C683.902 476.192 685.021 475.728 686.123 475.264C690.357 473.536 694.73 471.728 699.418 470.88ZM714.848 472.128C710.124 471.856 704.789 471.552 699.751 472.464C695.273 473.264 690.987 475.024 686.841 476.736L683.482 478.096C659.918 487.376 632.244 489.104 605.567 482.976C593.706 480.256 582.878 478.896 572.329 478.896C560.504 478.896 549.028 480.608 536.888 484.08C520.846 488.656 507.149 495.904 497.248 505.056C493.067 508.912 489.236 513.344 485.685 518.448C482.151 523.552 478.915 529.296 475.924 535.776C470.903 546.656 465.917 558.624 460.25 573.424C457.94 579.488 456.016 584.976 455.859 590.672C455.666 597.216 458.063 602.976 462.419 606.48C466.162 609.456 471.165 610.8 475.556 611.824C486.944 614.48 499.19 616.176 512.992 616.992C561.186 619.824 610.272 610.992 651.924 601.968C687.033 594.512 723.594 585.504 750.954 565.04C759.123 558.944 764.494 553.264 767.87 547.168C770.634 542.176 772.296 536.16 772.96 528.784C774.727 509.2 766.051 485.472 742.714 476.592C734.37 473.44 725.536 472.736 714.848 472.128ZM204.952 549.44C214.888 548.928 222.288 551.584 225.262 556.688C228.148 561.616 226.591 568.176 220.871 575.152C209.938 588.512 191.709 596.768 173.656 596.768C172.484 596.768 171.295 596.736 170.123 596.656C168.076 596.528 165.924 596.304 163.965 595.424C158.7 593.056 157.16 587.104 157.423 582.736C157.947 574.224 163.93 565.632 173.394 559.76C178.205 556.784 183.558 554.336 188.98 552.56C194.386 550.784 199.879 549.696 204.952 549.44ZM207.296 550.976C206.561 550.976 205.809 551.008 205.039 551.04C195.208 551.536 183.75 555.28 174.391 561.088C169.878 563.872 166.204 567.312 163.58 571.04C160.974 574.784 159.434 578.816 159.172 582.832C158.927 586.704 160.239 591.968 164.735 593.984C166.414 594.736 168.373 594.944 170.245 595.056C188.841 596.192 208.171 588 219.471 574.192C224.754 567.744 226.276 561.792 223.722 557.44C221.291 553.28 215.378 550.976 207.296 550.976ZM681.453 498.88C684.654 498.496 687.925 498.72 691.249 498.992C697.459 499.52 703.512 500.176 709.11 502.384C723.629 508.08 730.994 521.584 727.88 536.768C726.9 541.552 725.448 545.264 723.297 548.448C720.445 552.688 716.317 556.512 710.282 560.496C690.199 573.808 663.575 578.416 640.099 582.464L639.346 582.592C613.456 587.088 585.939 591.136 558.632 591.136C555.221 591.136 551.827 591.072 548.434 590.944C538.532 590.544 530.695 589.568 523.768 587.856C520.794 587.12 517.4 586.096 514.724 584.032C511.61 581.632 509.686 577.904 509.301 573.536C508.951 569.568 509.861 565.664 510.735 562.32C513.132 553.328 516.141 545.264 519.674 538.32C523.89 530.08 530.8 522.832 539.652 517.344C543.938 514.688 548.731 512.384 553.961 510.416C559.192 508.448 564.877 506.816 570.982 505.552C588.091 502.016 604.395 501.648 622.308 504.368C638.874 506.896 656.087 505.904 670.782 501.568C671.429 501.376 672.076 501.184 672.724 500.976C675.523 500.128 678.409 499.232 681.453 498.88ZM691.092 500.592C687.855 500.32 684.707 500.096 681.68 500.464C678.794 500.8 676.117 501.632 673.283 502.496C672.619 502.704 671.971 502.896 671.307 503.088C656.367 507.504 638.857 508.512 622.01 505.952C614.278 504.768 606.844 504.176 599.514 504.176C590.103 504.176 580.849 505.152 571.367 507.12C559.384 509.6 549.046 513.472 540.631 518.672C536.328 521.328 532.497 524.416 529.243 527.824C525.99 531.248 523.296 535.008 521.266 538.992C517.768 545.84 514.794 553.824 512.45 562.688C511.592 565.92 510.718 569.664 511.05 573.408C511.243 575.68 512.135 579.936 515.843 582.816C518.275 584.672 521.441 585.632 524.223 586.32C531.01 588 538.742 588.96 548.503 589.344C578.959 590.528 610.01 586.048 639.031 581.024L639.784 580.896C663.067 576.864 689.482 572.304 709.25 559.2C715.092 555.344 719.081 551.664 721.81 547.616C723.839 544.592 725.221 541.056 726.148 536.48C729.105 522.048 722.142 509.248 708.41 503.856C703.04 501.744 697.162 501.104 691.092 500.592ZM1312 433.728V435.344C1310.27 435.584 1308.55 435.904 1306.87 436.32C1294.33 439.44 1283.15 448.384 1276.21 460.848C1270.68 470.768 1267.65 482.656 1266.71 498.256L1266.6 499.84C1266.32 504.896 1266.03 510.128 1263.82 514.88C1262.28 518.208 1259.89 521.152 1257.56 523.984C1254.87 527.264 1252.33 530.352 1250.98 534.032C1249.53 537.984 1249.6 542.32 1249.67 546.16C1249.83 554.848 1250.48 563.856 1256.49 570.016C1261.65 575.296 1269.7 577.296 1277.5 578.896C1288.87 581.232 1300.4 583.168 1312 584.72V586.336C1300.28 584.768 1288.63 582.8 1277.12 580.448C1269.04 578.8 1260.69 576.72 1255.18 571.072C1248.78 564.512 1248.08 555.184 1247.92 546.176C1247.85 542.416 1247.78 537.728 1249.32 533.52C1250.77 529.6 1253.5 526.256 1256.16 523.024C1258.42 520.256 1260.76 517.408 1262.21 514.256C1264.3 509.76 1264.58 504.672 1264.86 499.76L1264.96 498.176C1265.92 482.336 1269 470.24 1274.65 460.112C1281.82 447.248 1293.4 438.016 1306.42 434.784C1308.26 434.32 1310.13 433.984 1312 433.728ZM639.014 527.28C649.825 526.384 664.642 525.168 674.858 529.648C679.668 531.76 682.397 534.448 682.975 537.616C683.622 541.104 681.628 544.96 677.062 549.088C665.237 559.808 645.329 560.768 629.34 561.536L626.296 561.68C612.284 562.384 598.062 562.928 584.015 563.296C583.07 563.312 582.126 563.328 581.198 563.328C576.388 563.328 571.857 562.864 568.201 560.416C561.763 556.096 561.379 547.12 565.07 541.424C569.74 534.224 578.627 531.648 583.508 530.752C594.353 528.752 606.196 528.48 617.655 528.208C624.582 528.048 631.737 527.872 638.454 527.328L639.014 527.28ZM654.985 528.032C649.44 528.032 643.912 528.48 639.171 528.88L638.612 528.912C631.842 529.472 624.652 529.648 617.707 529.808C606.319 530.08 594.546 530.352 583.84 532.32C579.939 533.04 576.405 534.304 573.466 536C570.528 537.696 568.148 539.808 566.574 542.24C563.285 547.328 563.565 555.328 569.233 559.12C573.152 561.744 578.435 561.824 583.962 561.696C597.992 561.328 612.197 560.784 626.191 560.08L629.253 559.936C644.944 559.184 664.484 558.256 675.837 547.952C679.966 544.208 681.803 540.816 681.26 537.872C680.771 535.248 678.356 532.976 674.088 531.104C668.683 528.72 661.825 528.032 654.985 528.032ZM862.946 344.336C883.238 344.336 902.236 357.072 918.995 370.896C936.696 385.487 960.957 391.288 985.279 396.017L987.795 396.503C989.891 396.905 991.986 397.301 994.076 397.696C1001.91 399.184 1009.31 400.576 1016.52 402.24C1029.41 405.2 1045.45 408.88 1055.72 419.216C1061.32 424.848 1065.01 432.272 1066.39 440.672C1069.79 461.28 1058.1 483.84 1036.64 498.144C1019.77 509.36 997.47 515.984 968.413 518.4C964.04 518.768 959.142 519.056 954.016 519.056C939.514 519.056 923.053 516.72 910.65 507.088C897.66 496.987 892.531 481.746 888.212 466.492L887.717 464.732C887.47 463.853 887.226 462.973 886.982 462.096C885.88 458.144 884.743 454.064 883.501 450.176C878.34 433.952 867.774 411.696 846.73 397.84C845.19 396.832 843.564 395.824 841.937 394.8L840.857 394.129C839.958 393.568 839.059 393.005 838.168 392.434L837.104 391.746C829.695 386.904 823.14 381.488 822.362 373.424C821.679 366.24 826.455 358.592 835.149 352.944C844.613 346.864 853.902 344.336 862.946 344.336ZM917.823 372.08C894.119 352.544 865.868 335.168 836.146 354.256C827.977 359.568 823.481 366.688 824.111 373.28C824.968 382.32 834.1 387.984 842.916 393.472C844.561 394.496 846.188 395.52 847.744 396.544C869.209 410.672 879.95 433.264 885.18 449.728C886.422 453.648 887.577 457.744 888.661 461.696C888.742 461.985 888.822 462.273 888.903 462.562L889.631 465.164C893.952 480.498 898.938 495.889 911.787 505.872C924.173 515.504 942.103 518.976 968.256 516.8C996.98 514.416 1019.02 507.888 1035.61 496.848C1056.54 482.896 1067.95 460.944 1064.66 440.912C1063.33 432.816 1059.78 425.696 1054.43 420.288C1044.51 410.32 1028.75 406.704 1016.1 403.792C1008.91 402.144 1001.53 400.736 993.709 399.264L991.179 398.785C964.596 393.739 937.389 388.208 917.823 372.08ZM924.4 417.136C927.584 416.24 930.838 416.464 934.441 416.816C944.15 417.744 953.859 419.36 963.253 420.912C971.475 422.272 979.959 423.68 988.391 424.624C990.892 424.896 993.586 425.04 996.455 425.2C1004.55 425.616 1013.72 426.112 1020.3 430.096C1029.64 435.776 1033.63 442.672 1032.11 450.592C1029.17 465.904 1005.76 480.496 990.945 483.808C984.297 485.296 976.793 486.672 969.061 486.672C966.209 486.672 963.34 486.496 960.454 486.048C948.628 484.208 936.995 477.888 927.706 468.256C918.872 459.072 913.554 448.288 912.732 437.888C912.067 429.648 915.444 419.648 924.4 417.136ZM929.491 418.112C927.899 418.112 926.377 418.256 924.907 418.672C916.878 420.928 913.869 430.144 914.464 437.76C915.269 447.824 920.447 458.288 929.018 467.2C938.045 476.56 949.311 482.688 960.751 484.464C971.073 486.064 981.603 484.24 990.525 482.256C1004.9 479.04 1027.58 465.008 1030.37 450.32C1031.77 443.072 1028.05 436.736 1019.34 431.44C1013.14 427.68 1004.22 427.2 996.35 426.784C993.464 426.64 990.735 426.496 988.181 426.208C979.697 425.264 971.177 423.84 962.938 422.48C953.579 420.928 943.905 419.328 934.266 418.4C932.587 418.24 931.013 418.112 929.491 418.112ZM378.801 371.296C398.586 364.56 434.517 375.12 448.949 388.144C462.821 400.672 465.218 437.312 453.007 450.384C449.509 454.144 443.911 456.176 437.946 456.176C435.094 456.176 432.155 455.712 429.321 454.736C420.645 451.792 414.19 445.12 410.079 440.368C408.504 438.544 406.965 436.64 405.478 434.816C402.154 430.704 398.726 426.464 394.702 422.88C391.571 420.096 388.002 417.632 384.556 415.264C380.847 412.704 377.016 410.064 373.658 406.976C367.57 401.376 362.077 392.32 364.963 383.728C366.818 378.256 371.978 373.6 378.801 371.296ZM447.724 389.28C433.625 376.56 398.638 366.256 379.413 372.784C373.098 374.928 368.322 379.2 366.643 384.208C363.966 392.112 369.162 400.576 374.9 405.856C378.171 408.848 381.949 411.456 385.606 413.984C389.104 416.4 392.708 418.88 395.927 421.744C400.055 425.408 403.519 429.712 406.877 433.856C408.364 435.68 409.886 437.568 411.443 439.376C415.432 443.984 421.677 450.432 429.934 453.248C438.016 456 446.972 454.4 451.678 449.344C463.451 436.736 461.107 401.376 447.724 389.28ZM396.102 0C392.55 10.032 387.757 19.824 383.052 29.44C372.433 51.104 362.409 71.568 365.523 93.968C367.045 104.928 371.821 115.408 376.422 125.536C378.258 129.584 380.165 133.76 381.844 137.92C392.953 165.472 395.402 196.48 388.737 225.216C387.25 231.616 385.291 238.048 383.401 244.256C380.148 254.976 376.789 266.064 375.757 277.296C375.197 283.568 375.337 290.096 375.477 296.4C375.757 309.392 376.037 322.816 370.176 334.816C361.465 352.608 340.63 364.992 308.285 371.6C290.442 375.248 272.004 377.248 254.161 379.184C242.598 380.448 230.632 381.744 218.964 383.472C189.715 387.824 160.501 395.152 132.25 402.24C90.3531 412.752 47.0221 423.632 2.92139 424.896C2.25664 424.912 1.55691 424.928 0.822187 424.928C0.542293 424.928 0.279893 424.928 0 424.912V423.312C0.99712 423.328 1.95925 423.328 2.86891 423.296C46.7597 422.048 89.9857 411.184 131.795 400.704C160.099 393.6 189.348 386.256 218.684 381.888C230.387 380.16 242.37 378.848 253.951 377.6C271.741 375.664 290.144 373.664 307.9 370.048C339.686 363.552 360.1 351.472 368.567 334.16C374.287 322.496 373.99 309.248 373.728 296.432C373.588 290.08 373.448 283.52 374.025 277.152C375.057 265.792 378.451 254.624 381.722 243.824C383.611 237.632 385.553 231.248 387.022 224.88C393.617 196.448 391.203 165.76 380.2 138.464C378.538 134.336 376.649 130.176 374.812 126.16C370.159 115.92 365.331 105.344 363.791 94.176C360.759 72.416 370.23 51.7589 379.994 31.7764L380.971 29.7804C381.134 29.4481 381.297 29.1159 381.46 28.784C386.06 19.376 390.749 9.792 394.265 0H396.102ZM361.097 0C358.211 10.96 354.45 21.744 348.852 31.904C346.176 36.736 343.079 41.424 340.07 45.968C336.799 50.944 333.405 56.064 330.589 61.36C316.594 87.76 316.874 120.432 331.341 146.624C333.283 150.128 335.505 153.616 337.656 156.992C342.554 164.672 347.61 172.608 349.744 181.456C352.246 191.888 350.479 202.688 348.747 213.136C348.275 216.032 347.785 219.024 347.4 221.936C346.141 231.36 345.843 241.056 345.581 250.416C345.283 260.4 344.969 270.736 343.482 280.816C341.068 297.28 334.07 319.584 314.478 332.368C299.836 341.904 281.398 344.064 263.555 346.128L262.068 346.304C203.045 353.2 144.215 364.64 87.2043 380.32L82.9009 381.504L79.6437 382.404C57.3637 388.551 34.6344 394.544 12.3503 394.544C8.22187 394.544 4.09344 394.336 0 393.888V392.272C22.8038 394.813 46.3816 389.669 69.6261 383.467L72.4706 382.703C75.7871 381.806 79.0958 380.893 82.3936 379.984L86.7145 378.784C143.795 363.088 202.713 351.616 261.84 344.72L263.327 344.544C264.767 344.377 266.21 344.209 267.655 344.037L269.823 343.775C285.365 341.867 300.936 339.228 313.463 331.056C332.548 318.608 339.371 296.752 341.75 280.608C343.219 270.608 343.534 260.32 343.831 250.368C344.094 240.976 344.391 231.248 345.651 221.744C346.053 218.8 346.543 215.808 347.015 212.896C348.712 202.592 350.479 191.952 348.03 181.792C345.966 173.2 340.963 165.376 336.134 157.792C333.983 154.4 331.744 150.896 329.784 147.344C315.072 120.72 314.775 87.504 329.015 60.656C331.866 55.312 335.277 50.144 338.583 45.136C341.557 40.624 344.654 35.952 347.278 31.184C352.753 21.28 356.444 10.736 359.296 0H361.097ZM476.693 0C456.524 20.432 440.132 42.656 440.972 68.432C441.357 79.888 445.328 91.104 449.159 101.936C450.348 105.28 451.573 108.736 452.675 112.144C461.719 140.16 463.906 170.224 458.99 199.072C457.731 206.56 455.964 214.096 454.249 221.376C451.73 232.144 449.124 243.264 448.074 254.384C446.64 269.648 447.952 291.168 462.261 307.088C466.267 311.536 471.253 315.472 476.064 319.264C484.076 325.584 492.367 332.112 496.338 341.232C497.808 344.576 498.665 348.24 499.487 351.76C501.009 358.224 502.444 364.32 507.272 368.64C510.945 371.936 516.001 373.552 521.721 375.184C557.915 385.424 595.928 393.072 628.903 379.68C637.842 376.032 646.239 370.848 654.356 365.84L655.327 365.238L657.277 364.034C668.674 357.017 680.539 350.168 694.17 347.84C706.643 345.712 719.396 347.616 731.711 349.456C739.128 350.56 746.79 351.712 754.33 351.968C791.328 353.184 827.75 331.168 840.974 299.552C848.811 280.784 848.829 259.936 848.846 241.552C848.899 198.304 848.969 144.464 882.714 107.2C889.029 100.224 896.446 93.984 903.618 87.952C910.388 82.256 917.403 76.368 923.438 69.872C941.421 50.528 950.798 25.2 950.325 0H952.075C952.547 25.568 943.013 51.28 924.768 70.896C918.662 77.472 911.612 83.408 904.79 89.136C897.67 95.12 890.306 101.328 884.061 108.224C850.718 145.04 850.648 198.56 850.596 241.552C850.578 260.08 850.561 281.072 842.601 300.112C829.132 332.368 792.011 354.88 754.26 353.568C746.615 353.312 738.901 352.16 731.431 351.04C719.256 349.216 706.678 347.344 694.503 349.424C680.053 351.872 667.476 359.648 655.335 367.152C647.148 372.208 638.682 377.44 629.603 381.136C616.745 386.368 603.17 388.448 589.245 388.448C566.906 388.448 543.693 383.072 521.214 376.704C516.368 375.328 510.333 373.616 506.047 369.792C501.371 365.602 499.642 359.817 498.247 354.025L497.941 352.738C497.891 352.524 497.84 352.31 497.79 352.096C496.968 348.64 496.128 345.04 494.711 341.824C490.898 333.072 483.131 326.96 474.926 320.48C470.063 316.64 465.025 312.656 460.914 308.096C446.22 291.776 444.873 269.808 446.325 254.256C447.374 243.04 449.999 231.856 452.535 221.04C454.249 213.792 455.999 206.272 457.276 198.832C462.139 170.208 459.97 140.384 450.996 112.592C449.894 109.2 448.686 105.76 447.497 102.432C443.631 91.488 439.607 80.16 439.223 68.48C438.365 42.608 454.407 20.384 474.332 0H476.693ZM1269.61 100.976C1285.17 104.032 1300.1 106.304 1312 101.936V107.008C1297.62 111.376 1280.63 108.048 1268.51 105.664C1151.15 82.624 1054.1 85.152 971.772 113.424C929.018 128.096 902.813 148.56 893.857 174.256C889.833 185.808 889.466 198.272 889.116 210.32C889.057 212.38 888.997 214.446 888.942 216.516L888.862 219.624C888.282 243.473 888.519 267.8 896.148 290.8C901.099 305.776 909.478 321.024 921.759 337.408C928.634 346.576 937.24 356.704 948.891 362.288C959.072 367.184 970.845 368.4 983.02 369.312C998.502 370.464 1014.19 371.2 1029.71 371.504C1038.32 371.664 1046 371.584 1052.89 368.88C1061.5 365.472 1067.85 358.176 1073.44 351.744L1141.84 273.12C1153.81 259.36 1167.38 243.76 1185.23 233.856C1201.04 225.056 1225.15 219.376 1245.35 229.776C1249.3 231.824 1252.87 234.368 1256.32 236.832C1259.52 239.136 1262.55 241.312 1265.87 243.104C1279.51 250.48 1295.64 250.304 1312 246.72V251.552C1286.97 256.864 1273.3 252.688 1263.21 247.232C1259.57 245.28 1256.27 242.912 1253.08 240.624C1249.64 238.16 1246.38 235.824 1242.78 233.968C1227.75 226.224 1206.24 227.792 1187.94 237.952C1170.92 247.408 1158.22 262 1145.94 276.112L1077.55 354.736C1071.85 361.28 1064.78 369.408 1054.97 373.28C1048.46 375.84 1041.41 376.352 1034.14 376.352C1032.63 376.352 1031.11 376.336 1029.59 376.304C1013.98 376 998.17 375.248 982.601 374.096C969.865 373.136 957.515 371.856 946.459 366.544C933.777 360.464 924.68 349.776 917.438 340.128C904.843 323.328 896.236 307.648 891.11 292.192C882.259 265.44 883.081 237.36 883.868 210.192C884.236 197.808 884.603 185.008 888.854 172.8C898.318 145.632 925.607 124.144 969.935 108.928C1053.22 80.32 1151.25 77.728 1269.61 100.976ZM319.183 0C316.175 16.432 308.215 32.112 300.431 47.424C298.874 50.512 297.317 53.568 295.812 56.608C283.532 81.536 277.917 103.696 278.634 124.368C279.089 136.992 283.969 148.976 288.692 160.576C292.594 170.176 296.634 180.112 298.226 190.464C302.25 216.736 301.34 241.776 295.62 262.88C287.59 292.464 263.992 310.016 223.495 316.544C175.091 324.336 129.766 336.832 95.671 346.832C70.5156 354.224 48.7014 357.904 29.3013 357.904C18.8753 357.904 9.16651 356.848 0 354.736V353.072C25.9951 359.168 56.5909 356.64 95.1462 345.312C129.276 335.28 174.671 322.768 223.18 314.96C262.925 308.56 286.068 291.392 293.923 262.496C299.591 241.6 300.483 216.752 296.495 190.672C294.938 180.512 290.932 170.656 287.048 161.136L286.123 158.861C281.655 147.842 277.31 136.465 276.884 124.416C276.15 103.504 281.818 81.104 294.22 55.952C295.725 52.896 297.282 49.84 298.839 46.752C299.319 45.807 299.799 44.8606 300.279 43.9126L301.717 41.0642C308.406 27.7498 314.751 14.126 317.399 0H319.183ZM522.753 0C504.158 18.688 493.942 37.728 492.332 56.672C491.388 67.936 493.522 79.36 495.586 90.416C496.006 92.672 496.426 94.928 496.828 97.168C504.753 142.16 502.636 189.312 490.688 233.552C494.432 246.304 498.333 259.472 506.205 270.8C508.339 273.888 510.805 276.88 513.202 279.76C517.645 285.136 522.228 290.688 524.94 297.104C526.847 301.616 527.791 306.496 528.701 311.216C530.048 318.256 531.342 324.896 535.506 330.496C540.771 337.568 550.218 342.288 564.37 344.912C588.843 349.472 613.474 346.976 633.766 337.904C655.808 328.048 672.479 310.144 678.322 290.016C683.132 273.456 680.876 255.904 678.689 238.928C677.814 232.176 676.922 225.184 676.485 218.336C674.193 183.248 683.989 147.408 704.054 117.424C708.777 110.336 714.2 103.36 719.448 96.592L720.888 94.7371C721.368 94.118 721.848 93.498 722.327 92.8771L723.764 91.0115L725.196 89.1395C736.856 73.8243 747.657 57.8111 750.289 39.504C752.126 26.72 749.799 13.136 743.712 0H745.583C751.601 13.216 753.858 26.848 752.021 39.712C748.907 61.408 734.65 79.76 720.883 97.52C715.652 104.256 710.247 111.232 705.541 118.256C685.669 147.968 675.96 183.472 678.217 218.24C678.671 225.04 679.563 232.016 680.421 238.752C682.625 255.872 684.899 273.568 680.001 290.416C674.036 310.992 657.032 329.28 634.536 339.344C620.628 345.552 604.727 348.736 588.231 348.736C580.254 348.736 572.137 348 564.037 346.48C549.396 343.76 539.599 338.832 534.071 331.392C529.681 325.504 528.299 318.384 526.969 311.504C526.077 306.848 525.15 302.048 523.296 297.68C520.689 291.472 516.176 286.016 511.802 280.736C509.388 277.808 506.904 274.8 504.718 271.664C496.671 260.064 492.735 246.704 488.939 233.76L488.869 233.568L488.921 233.36C500.869 189.28 503.003 142.272 495.096 97.424C494.711 95.184 494.292 92.944 493.872 90.688C491.773 79.536 489.621 68 490.583 56.544C492.192 37.616 502.199 18.624 520.392 0H522.753ZM989.37 131.056C1033.56 117.792 1115.81 93.104 1145.87 148.912C1153.37 162.864 1154.87 180.272 1150.1 197.952C1146.32 211.968 1138.83 226.192 1126.57 242.72C1114.66 258.784 1099.98 274.944 1080.39 293.584C1065.1 308.128 1051.59 319.456 1035.38 327.408C1022.36 333.792 1008.96 337.056 996.298 337.056C990.14 337.056 984.175 336.288 978.507 334.736C961.364 330.048 945.672 317.408 935.439 300.048C926.062 284.128 921.759 266.144 918.522 249.088C913.449 222.4 910.563 191.92 927.514 168.144C942.576 147.008 970.04 136.848 989.37 131.056ZM1144.29 149.616C1114.9 95.072 1033.59 119.456 989.913 132.576C970.828 138.304 943.748 148.304 928.983 169.024C912.347 192.336 915.234 222.432 920.254 248.816C923.473 265.744 927.724 283.568 936.978 299.28C947.002 316.272 962.308 328.64 979.014 333.2C995.686 337.76 1015.93 335.136 1034.54 326C1050.56 318.144 1063.96 306.912 1079.13 292.464C1098.65 273.904 1113.26 257.808 1125.14 241.824C1137.28 225.456 1144.68 211.392 1148.4 197.568C1153.09 180.256 1151.62 163.232 1144.29 149.616ZM48.5965 142.624C84.5628 127.28 126.862 123.904 167.726 133.136C202.905 141.088 237.594 152.224 253.076 179.632C267.316 204.848 270.167 231.568 260.721 251.136C252.884 267.36 235.635 280.544 207.978 291.44C182.053 301.664 153.224 309.072 119.812 314.08C92.9246 318.112 63.9031 320.496 28.5141 321.6C25.7852 321.68 23.0037 321.744 20.1698 321.744C13.5223 321.744 6.66496 321.44 0 320.544V318.928C9.46389 320.224 19.3651 320.288 28.4442 320C63.7807 318.896 92.7147 316.512 119.532 312.496C152.787 307.52 181.493 300.144 207.296 289.984C234.516 279.232 251.484 266.32 259.129 250.496C268.365 231.36 265.514 205.152 251.519 180.368C236.807 154.325 204.122 143.217 170.434 135.404L168.349 134.925L167.306 134.688C126.844 125.552 84.9301 128.88 49.3312 144.08C30.9107 151.952 14.1521 163.12 0 176.896V174.576C14.0471 161.216 30.5084 150.352 48.5965 142.624ZM755.712 125.888C768.447 121.632 781.567 123.008 793.673 129.856C827.032 148.752 824.601 192.336 822.816 224.16C822.659 227.088 822.484 229.936 822.362 232.688C821.627 248.432 820.14 266.56 811.586 282.416C802.419 299.424 785.381 310.8 768.185 311.408C767.677 311.44 767.188 311.44 766.68 311.44C749.887 311.44 732.883 301.488 723.017 285.76C713.063 269.936 711.156 251.344 710.614 236.928C710.457 232.688 710.369 228.56 710.369 224.544C710.369 200.048 713.361 179.696 719.466 162.608C725.606 145.376 739.496 131.312 755.712 125.888ZM792.763 131.216C781.13 124.624 768.517 123.296 756.307 127.392C740.58 132.656 727.11 146.336 721.128 163.104C714.095 182.816 711.226 206.944 712.363 236.864C712.906 251.104 714.778 269.44 724.521 284.976C734.37 300.656 751.461 310.416 768.115 309.824C784.681 309.232 801.125 298.192 810.011 281.712C818.408 266.144 819.895 248.208 820.612 232.608C820.735 229.872 820.91 227.008 821.067 224.064C822.834 192.64 825.248 149.616 792.763 131.216ZM997.225 155.088C1033.21 143.024 1084.34 130.736 1112.77 163.232C1119.15 170.512 1122.35 178.56 1122.35 187.232C1122.35 191.44 1121.6 195.808 1120.1 200.304C1115.69 213.504 1106.79 225.92 1098.65 236.32C1088.91 248.752 1077.82 260.928 1064.73 273.536C1055.13 282.8 1044.51 292.24 1031.95 298.592C1022.08 303.6 1011.52 306.208 1001.63 306.208C997.575 306.208 993.621 305.776 989.895 304.88C976.828 301.76 964.88 292.816 957.13 280.336C949.801 268.448 946.704 254.72 944.64 242.832C944.395 241.504 944.185 240.16 943.975 238.816C941.614 223.376 939.899 200.816 952.337 183.328C960.821 171.408 975.078 162.432 997.225 155.088ZM1060.62 144.016C1039.21 144.016 1016.47 150.336 997.837 156.592C976.058 163.808 962.063 172.576 953.806 184.192C941.684 201.248 943.38 223.408 945.707 238.592C945.917 239.936 946.127 241.264 946.354 242.592C948.401 254.32 951.462 267.888 958.652 279.536C966.174 291.664 977.72 300.336 990.333 303.328C1002.72 306.288 1017.59 304.064 1031.09 297.2C1043.44 290.944 1053.96 281.6 1063.47 272.432C1076.5 259.888 1087.54 247.76 1097.23 235.376C1105.28 225.088 1114.1 212.816 1118.44 199.84C1122.86 186.592 1120.5 174.608 1111.4 164.224C1104.83 156.704 1096.97 151.648 1088.33 148.48C1079.71 145.312 1070.29 144.016 1060.62 144.016ZM70.2182 157.296C97.0005 147.952 127.754 146.288 156.81 152.624C158.612 153.024 160.414 153.424 162.233 153.84C186.304 159.36 212.561 167.888 224.754 189.2C236.107 208.928 238.119 230.048 230.142 245.68C223.53 258.544 209.273 269.056 186.584 277.792C166.169 285.664 142.868 291.568 117.31 295.344C104.085 297.312 90.2481 298.752 75.0464 299.76C65.7225 300.368 56.1011 300.8 45.6401 301.088C43.8033 301.136 41.9315 301.168 40.0247 301.168C26.0301 301.168 10.601 299.584 0 291.888V289.792C11.5456 299.024 30.106 299.888 45.5876 299.488C56.0311 299.2 65.6175 298.768 74.9065 298.16C90.0732 297.152 103.858 295.728 117.03 293.776C142.448 290 165.627 284.144 185.902 276.32C208.188 267.744 222.13 257.488 228.55 245.008C236.3 229.824 234.306 209.232 223.197 189.936C217.267 179.552 207.838 172.288 196.94 166.928C186.024 161.568 173.656 158.112 161.813 155.392C159.994 154.976 158.192 154.576 156.408 154.176C144.932 151.68 133.194 150.448 121.544 150.448C104.033 150.448 86.7319 153.248 70.8305 158.8C68.1715 159.728 65.53 160.736 62.9585 161.824C42.4388 170.416 24.5082 183.968 11.1258 200.992C9.25397 203.36 7.45216 205.824 5.79029 208.288C3.6736 211.424 1.74933 214.608 0 217.856V214.352C1.32949 212.032 2.76395 209.728 4.30336 207.456C5.98272 204.944 7.80203 202.448 9.7088 200.048C23.2661 182.8 41.4242 169.072 62.2413 160.368C64.8303 159.264 67.5243 158.24 70.2182 157.296ZM544.9 0C530.8 15.824 522.981 31.568 521.599 46.88C520.777 56 522.246 65.28 523.645 74.24C523.943 76.144 524.24 78.032 524.52 79.92C529.838 116.24 527.616 154.72 518.1 191.184C519.552 196.88 521.214 203.312 523.488 209.392C525.237 214.096 527.179 218.128 529.436 221.712C531.115 224.4 533.092 227.024 534.999 229.552C538.27 233.92 541.664 238.416 543.78 243.504C545.232 246.976 546.089 250.656 546.912 254.224C548.259 260.096 549.536 265.632 553.262 270.224C557.652 275.68 565.454 279.344 576.423 281.136C595.963 284.336 615.363 281.808 631.037 274.016C647.953 265.6 660.863 250.48 665.551 233.568C669.277 220.32 667.808 206.336 666.374 192.8C665.796 187.312 665.201 181.648 664.957 176.08C663.697 148.224 671.499 119.376 686.928 94.88C690.427 89.328 694.363 83.824 698.194 78.496L698.828 77.6103L700.098 75.8347C710.04 61.904 719.823 47.4259 721.862 30.912C723.104 20.912 721.355 10.304 716.877 0H718.749C723.157 10.368 724.854 21.024 723.612 31.104C721.701 46.529 713.257 60.096 704.131 73.0774L702.854 74.885C702.427 75.4864 702 76.0866 701.572 76.6859L700.287 78.4806C700.073 78.7793 699.86 79.0778 699.646 79.376C695.85 84.672 691.914 90.16 688.45 95.68C673.178 119.92 665.464 148.464 666.706 176.016C666.951 181.536 667.546 187.184 668.105 192.64C669.557 206.32 671.044 220.448 667.248 233.968C662.438 251.296 649.213 266.8 631.877 275.424C620.366 281.136 606.914 284.08 592.867 284.08C587.339 284.08 581.741 283.632 576.108 282.704C564.685 280.848 556.533 276.976 551.845 271.184C547.909 266.304 546.527 260.336 545.197 254.56C544.393 251.056 543.553 247.424 542.153 244.064C540.107 239.168 536.783 234.736 533.547 230.464C531.622 227.904 529.628 225.248 527.914 222.512C525.605 218.832 523.61 214.704 521.826 209.92C519.517 203.696 517.838 197.152 516.351 191.376L516.298 191.184L516.351 191.008C525.85 154.656 528.071 116.32 522.788 80.128C522.508 78.24 522.211 76.368 521.914 74.48C520.497 65.424 519.027 56.064 519.849 46.752C521.231 31.44 528.893 15.744 542.661 0H544.9ZM81.7988 175.888C101.776 169.088 124.535 167.744 145.894 172.112C147.206 172.384 148.553 172.672 149.883 172.96C166.624 176.592 187.039 182.8 196.433 198.752C204.899 213.152 206.071 228.656 199.546 240.256C194.211 249.744 182.963 257.552 165.19 264.144C149.988 269.776 133.037 273.984 114.809 276.624C105.257 278.016 94.9188 279.056 84.1079 279.728C77.338 280.144 70.1483 280.432 62.7836 280.576C61.8564 280.592 60.9293 280.592 59.9846 280.592C47.4419 280.592 32.9574 279.072 25.1729 269.92C21.4293 265.52 19.3301 259.904 18.9103 253.232C18.8403 252 18.8053 250.704 18.8228 249.408C19.0502 236.768 23.686 223.808 32.2052 211.968C33.5172 210.144 34.9167 208.336 36.3512 206.624C46.6722 194.256 60.3345 184.4 75.8861 178.096C77.8103 177.312 79.8046 176.56 81.7988 175.888ZM120.791 171.2C107.602 171.2 94.4815 173.28 82.4111 177.392C80.4518 178.048 78.4926 178.784 76.5858 179.552C61.3141 185.744 47.8793 195.44 37.7331 207.584C36.3337 209.28 34.9517 211.056 33.6747 212.848C25.3303 224.448 20.7996 237.088 20.5722 249.424C20.5547 250.704 20.5897 251.936 20.6596 253.136C21.0445 259.488 23.0387 264.8 26.5549 268.928C34.4444 278.208 50.0309 279.168 62.7486 278.976C70.0958 278.832 77.2506 278.544 84.003 278.128C94.7439 277.472 105.03 276.432 114.546 275.04C132.634 272.416 149.446 268.256 164.525 262.672C181.896 256.224 192.847 248.656 197.99 239.52C204.252 228.4 203.098 213.44 194.893 199.52C190.362 191.824 183.103 186.464 174.933 182.576C166.746 178.688 157.667 176.288 149.481 174.512C148.151 174.224 146.822 173.936 145.51 173.68C137.393 172.016 129.083 171.2 120.791 171.2ZM1005.06 179.136C1027.91 169.84 1068.46 163.728 1082.05 176.912C1091.25 185.184 1095.01 191.44 1090.1 202.688C1085.9 212.288 1077.61 221.904 1070.96 229.632L1070.71 229.92C1064.14 237.552 1056.96 245.696 1049.08 253.504C1043.09 259.408 1036.46 265.488 1028.52 269.776C1021.7 273.504 1014.14 275.488 1007.06 275.488C1005.1 275.488 1003.17 275.328 1001.3 275.024C992.239 273.504 984.052 268.272 978.839 260.624C973.574 252.912 971.737 243.728 970.74 236.576C970.617 235.728 970.513 234.864 970.408 233.984C968.693 218.96 970.915 207.344 977.178 198.496C984.315 188.384 996.508 182.608 1005.06 179.136ZM1054.6 170.976C1038.49 170.976 1019.23 175.12 1005.78 180.592C992.502 185.984 983.895 191.952 978.647 199.36C972.612 207.904 970.478 219.168 972.157 233.824C972.244 234.672 972.367 235.536 972.472 236.384C973.451 243.36 975.236 252.336 980.326 259.776C985.277 267.04 993.044 272.016 1001.62 273.456C1009.79 274.816 1019.27 272.976 1027.63 268.4C1035.38 264.208 1041.9 258.24 1047.8 252.416C1055.64 244.656 1062.79 236.544 1069.33 228.928L1069.58 228.64C1076.17 220.992 1084.36 211.472 1088.47 202.096C1092.6 192.656 1090.81 187.04 1080.81 178.048L1080.79 178.032C1075.63 173.008 1065.89 170.976 1054.6 170.976ZM751.689 181.296C758.004 172.96 767.17 169.024 778.943 169.648C787.043 170.064 792.92 173.488 796.419 179.808C808.367 201.408 788.949 249.728 780.343 261.808C778.313 264.656 775.969 267.488 772.541 268.864C771.106 269.44 769.532 269.712 767.905 269.712C764.616 269.712 761.135 268.56 758.231 266.368C754.225 263.36 751.811 259.072 749.992 255.296C747.805 250.768 745.986 245.056 744.656 238.816C743.327 232.576 742.505 225.824 742.312 219.232C742.015 207.984 743.379 192.272 751.689 181.296ZM776.617 171.184C766.575 171.184 758.668 174.88 753.123 182.208C739.513 200.16 743.134 237.104 751.584 254.64C753.333 258.256 755.607 262.336 759.333 265.136C763.164 268.016 768.08 268.912 771.823 267.392C774.85 266.192 777.001 263.584 778.873 260.944C788.687 247.168 805.725 200.16 794.862 180.528C791.661 174.752 786.273 171.632 778.838 171.248C778.086 171.2 777.351 171.184 776.617 171.184ZM93.3969 194.464C106.569 190.224 121.334 189.216 134.961 191.6C135.801 191.744 136.658 191.904 137.515 192.064C153.364 195.072 163.09 200.24 168.093 208.304C171.102 213.152 172.607 218.128 172.607 222.864C172.607 227.12 171.4 231.2 168.951 234.832C164.787 240.992 156.565 246.112 143.778 250.496C133.911 253.888 123.328 256.368 112.307 257.904C106.22 258.736 99.782 259.344 93.187 259.696C89.0411 259.92 84.6852 260.032 79.8921 260.064H79.4897C67.8916 260.064 60.4745 257.952 56.1711 253.456C53.3897 250.544 51.6403 246.928 51.133 242.976C51.028 242.176 50.9581 241.344 50.9406 240.496C50.6432 232.448 53.827 224.144 60.1246 216.464C61.0517 215.328 62.0314 214.208 63.011 213.168C70.0258 205.728 79.1923 199.728 89.5309 195.824C90.8079 195.344 92.0849 194.896 93.3969 194.464ZM120.179 191.936C111.275 191.936 102.301 193.296 93.9742 195.984C92.6972 196.384 91.4377 196.832 90.1956 197.312C80.102 201.12 71.1629 206.96 64.3405 214.208C63.3783 215.232 62.4337 216.304 61.5241 217.424C55.4714 224.8 52.41 232.768 52.6899 240.448C52.7074 241.232 52.7774 242 52.8823 242.784C53.3372 246.416 54.9466 249.744 57.4831 252.4C61.4891 256.576 68.6613 258.544 79.8921 258.464C84.6502 258.432 88.9711 258.32 93.082 258.096C99.642 257.76 106.01 257.152 112.045 256.32C122.943 254.816 133.422 252.352 143.165 249.008C155.568 244.752 163.51 239.84 167.446 234C172.274 226.848 171.959 217.76 166.589 209.104C164.21 205.28 160.694 202.144 155.831 199.584C151.002 197.04 144.827 195.088 137.165 193.632C136.308 193.472 135.468 193.312 134.629 193.168C129.905 192.336 125.06 191.936 120.179 191.936ZM1046.05 191.856C1055.16 191.168 1060.41 192.464 1062.07 195.792C1065.24 202.08 1054.06 213.36 1042.73 223.568C1040.29 225.76 1038.07 228.256 1035.94 230.672C1032.7 234.304 1029.36 238.048 1025.16 240.928C1021.31 243.568 1016.28 245.2 1011.5 245.2C1007.32 245.2 1003.35 243.952 1000.6 240.992C998.012 238.224 996.753 234.224 996.84 229.088C996.98 222.688 999.272 217.328 1002.49 212.96C1005.69 208.592 1009.8 205.216 1013.55 202.736C1022.52 196.784 1034.68 192.72 1046.05 191.856ZM1060.48 196.464C1059.2 193.888 1054.27 192.848 1046.19 193.456C1013.81 195.904 998.869 215.792 998.589 229.12C998.502 233.84 999.621 237.488 1001.93 239.952C1007.18 245.568 1017.53 244.16 1024.11 239.648C1028.14 236.896 1031.41 233.216 1034.57 229.664C1036.74 227.216 1039 224.688 1041.5 222.432C1047.54 217.008 1063.56 202.576 1060.48 196.464ZM105.03 213.04C111.94 211.232 119.06 210.576 125.095 211.168C131.987 211.872 137.06 214.16 139.754 217.84C142.746 221.904 142.221 225.952 138.232 229.52C134.121 233.216 127.316 235.552 122.331 236.864C115.963 238.544 108.634 239.568 102.231 239.68H101.129C94.8314 239.68 89.9507 238.768 87.3092 237.088C85.2625 235.808 83.9855 234.416 83.4082 232.848C81.8688 228.784 83.5132 224.64 88.1314 220.864C92.1024 217.632 98.1026 214.864 105.03 213.04ZM120.547 212.56C115.806 212.56 110.593 213.248 105.502 214.576C98.8198 216.336 93.0645 218.992 89.286 222.064C86.4696 224.368 83.4432 228.016 85.0526 232.336C85.5074 233.552 86.5745 234.688 88.3064 235.776C90.8079 237.36 95.741 238.176 102.196 238.08C108.459 237.968 115.631 236.976 121.841 235.328C128.716 233.52 133.964 231.12 137.008 228.384C140.419 225.328 140.839 222.176 138.302 218.72C135.276 214.608 129.346 213.216 124.902 212.768C123.503 212.624 122.051 212.56 120.547 212.56ZM1203.3 119.216C1216.03 119.456 1228.84 121.088 1241.22 122.688C1248.66 123.632 1256.35 124.624 1263.93 125.28C1283.15 126.976 1298.78 126.128 1312 122.576V124.24C1298.65 127.744 1283 128.576 1263.77 126.88C1256.14 126.208 1248.43 125.216 1240.98 124.272C1228.64 122.688 1215.89 121.056 1203.26 120.816C1197.52 120.72 1191.09 121.12 1187.24 124.944C1182.41 129.696 1184.21 137.216 1185.21 140.224C1185.87 142.256 1186.75 144.272 1187.6 146.24C1189.02 149.488 1190.47 152.848 1191.07 156.4C1191.75 160.48 1191.26 164.624 1190.79 168.624C1190.56 170.528 1190.33 172.512 1190.23 174.448C1190.02 178.576 1190.49 186.112 1196.05 190.112C1201.02 193.664 1207.49 193.056 1214.37 192.4C1218.11 192.048 1222 191.664 1225.69 192.016C1234.66 192.864 1242.06 197.92 1249.22 202.8C1251.56 204.384 1253.97 206.048 1256.39 207.504C1272.59 217.28 1293.19 220.256 1312 216.24V217.888C1306.58 219.008 1301.03 219.568 1295.47 219.568C1281.35 219.568 1267.25 215.968 1255.43 208.832C1252.98 207.344 1250.53 205.696 1248.18 204.08C1241.2 199.328 1234 194.416 1225.51 193.616C1222 193.28 1218.22 193.648 1214.54 193.984C1207.63 194.656 1200.5 195.328 1194.97 191.36C1188.79 186.928 1188.25 178.816 1188.48 174.368C1188.58 172.384 1188.83 170.384 1189.06 168.448C1189.51 164.544 1190 160.512 1189.34 156.64C1188.78 153.264 1187.36 150 1185.98 146.832C1185.12 144.832 1184.23 142.784 1183.53 140.688C1182.44 137.408 1180.52 129.232 1185.94 123.856C1190.28 119.584 1197.14 119.12 1203.3 119.216ZM567.029 0C557.303 13.12 552.02 25.296 550.865 37.104C550.183 44.08 550.97 51.168 551.705 58.032C551.88 59.584 552.055 61.12 552.195 62.672C554.958 90.592 552.719 119.584 545.512 148.832C546.527 153.904 547.471 158.48 548.818 162.976C549.92 166.64 551.18 169.808 552.667 172.64C553.909 175.008 555.396 177.328 556.848 179.568C558.947 182.848 561.134 186.224 562.638 189.904C563.6 192.24 564.282 194.656 564.965 196.992C566.347 201.792 567.641 206.32 570.982 209.936C574.604 213.872 580.481 216.352 588.441 217.344C602.82 219.168 617.34 216.544 628.291 210.128C640.204 203.152 649.143 191.12 652.799 177.12C655.388 167.184 654.706 156.752 654.041 146.656C653.761 142.448 653.463 138.096 653.411 133.824C653.184 112.928 658.834 91.664 669.802 72.336C672.041 68.4 674.508 64.464 676.887 60.656L677.438 59.7784L678.54 58.0182C685.511 46.8491 692.27 35.2523 693.453 22.336C694.118 15.088 692.893 7.456 689.972 0H691.826C694.678 7.504 695.85 15.168 695.203 22.464C693.891 36.752 686.018 49.312 678.409 61.456C676.03 65.248 673.581 69.168 671.359 73.072C660.531 92.176 654.933 113.168 655.16 133.808C655.213 138.032 655.51 142.368 655.773 146.56C656.455 156.768 657.155 167.328 654.496 177.488C650.734 191.904 641.533 204.288 629.235 211.488C620.279 216.72 609.03 219.52 597.38 219.52C594.336 219.52 591.275 219.328 588.213 218.928C579.799 217.888 573.554 215.216 569.653 210.976C566.049 207.072 564.632 202.16 563.268 197.392C562.603 195.104 561.921 192.72 560.994 190.464C559.542 186.912 557.408 183.6 555.343 180.384C553.874 178.112 552.37 175.76 551.092 173.328C549.553 170.416 548.259 167.168 547.122 163.408C545.74 158.8 544.777 154.128 543.763 148.96L543.728 148.8L543.763 148.64C550.953 119.504 553.209 90.624 550.463 62.816L549.973 58.192C549.221 51.248 548.433 44.08 549.116 36.96C550.27 25.136 555.448 13.008 564.93 0H567.029ZM1312 143.408V145.072C1291.83 150.224 1270.12 148.608 1250.69 147.152C1242.74 146.56 1231.69 146.56 1227.47 153.408C1224.31 158.576 1227.05 165.328 1231.25 169.056C1235.85 173.152 1242.34 175.168 1248.67 176.752C1270.79 182.256 1292.32 183.584 1312 180.768V182.384C1305.32 183.344 1298.46 183.808 1291.43 183.808C1277.52 183.808 1262.98 181.968 1248.22 178.288C1241.66 176.656 1234.92 174.56 1230.03 170.208C1225.25 165.952 1222.31 158.544 1225.95 152.624C1230.66 144.976 1242.39 144.928 1250.83 145.568C1270.28 147.024 1292.01 148.64 1312 143.408ZM589.036 0C585.257 7.68 581.251 17.28 580.131 27.328C579.607 32.096 579.712 36.944 579.817 41.632L579.886 45.456C580.114 64.144 577.84 84.112 572.924 106.496C573.222 109.776 573.571 113.264 574.149 116.608C574.603 119.2 575.181 121.488 575.933 123.632C576.755 126 577.875 128.352 578.942 130.624C579.817 132.464 580.726 134.368 581.496 136.304C581.846 137.2 582.161 138.08 582.493 138.96C583.98 143.008 585.397 146.848 588.668 149.616C592.167 152.592 596.995 153.408 600.441 153.568C609.695 154.048 619.054 151.312 625.492 146.288C632.524 140.816 637.422 132.192 640.046 120.688C641.533 114.144 641.603 107.328 641.655 100.736C641.69 97.728 641.725 94.608 641.883 91.536C642.618 78.192 646.344 63.76 652.659 49.84C653.586 47.808 654.548 45.776 655.493 43.76C660.023 34.224 664.694 24.368 665.027 13.776C665.167 9.216 664.484 4.576 662.997 0H664.799C666.251 4.592 666.916 9.248 666.776 13.824C666.444 24.72 661.685 34.736 657.102 44.4C656.157 46.416 655.195 48.432 654.286 50.448C648.04 64.208 644.349 78.448 643.632 91.616C643.475 94.656 643.44 97.76 643.405 100.752C643.352 107.424 643.282 114.304 641.743 121.008C639.049 132.88 633.958 141.792 626.629 147.504C620.279 152.464 611.637 155.216 602.61 155.216C601.858 155.216 601.106 155.2 600.354 155.168C596.628 154.992 591.362 154.08 587.479 150.8C583.875 147.744 582.406 143.728 580.831 139.472C580.516 138.608 580.184 137.728 579.852 136.848C579.099 134.96 578.207 133.072 577.35 131.248C576.248 128.944 575.111 126.56 574.254 124.112C573.484 121.904 572.889 119.536 572.417 116.864C571.822 113.424 571.472 109.856 571.175 106.512L571.157 106.4L571.192 106.288C576.09 83.968 578.365 64.08 578.137 45.472C578.12 44.208 578.085 42.944 578.067 41.664C577.962 36.928 577.857 32.032 578.4 27.152C579.502 17.184 583.368 7.68 587.094 0H589.036ZM285.736 0C286.611 4.784 286.401 10.032 285.071 15.424C282.972 23.984 278.511 31.92 274.19 39.6L272.669 42.336C265.269 55.6 258.586 69.376 252.796 83.28L252.551 83.856C249.298 91.712 245.921 99.824 238.627 104.928C231.122 110.176 221.256 110.976 211.722 111.072C194.526 111.216 177.137 109.68 160.309 108.192C140.419 106.432 119.847 104.608 99.607 105.584C64.6029 107.28 29.7037 117.856 0 135.312V133.392C29.7387 116.128 64.5679 105.68 99.5021 103.984C119.882 103.008 140.524 104.832 160.484 106.592C177.26 108.08 194.613 109.616 211.704 109.472C220.941 109.392 230.475 108.624 237.559 103.664C244.452 98.832 247.741 90.928 250.924 83.296L251.169 82.704C256.977 68.752 263.677 54.928 271.112 41.6L272.634 38.864C276.902 31.28 281.31 23.44 283.375 15.072C284.669 9.776 284.844 4.64 283.952 0H285.736ZM783.614 0C786.955 21.104 781.567 44.8 767.957 67.216L767.013 68.752C764.756 72.432 762.429 76.208 761.467 80.304C760.26 85.376 761.712 90.368 765.123 93.008C769.357 96.272 775.095 95.712 781.165 95.12C784.733 94.784 788.407 94.416 791.888 94.848C796.874 95.472 801.335 97.744 805.673 99.952C810.204 102.272 814.49 104.448 819.335 104.912C830.898 106.016 840.117 96.656 843.546 92.592C845.82 89.872 847.902 86.912 849.914 84.048C853.22 79.328 856.631 74.464 861.092 70.432C865.028 66.896 869.698 64.08 874.212 61.376C877.85 59.184 881.612 56.928 884.935 54.304C901.204 41.456 906.539 21.024 909.391 0H911.14C908.254 21.424 902.848 42.288 886.072 55.52C882.661 58.208 878.865 60.496 875.174 62.704C870.731 65.376 866.13 68.144 862.316 71.584C857.995 75.472 854.637 80.272 851.383 84.912C849.354 87.808 847.255 90.784 844.928 93.568C841.534 97.616 832.7 106.592 821.242 106.592C820.56 106.592 819.86 106.56 819.16 106.496C813.947 106 809.294 103.632 804.816 101.344C800.635 99.216 796.314 97.024 791.643 96.432C788.372 96.032 784.803 96.384 781.357 96.72C775.182 97.312 768.815 97.936 764.004 94.224C759.263 90.56 758.703 84.464 759.753 79.968C760.768 75.648 763.164 71.744 765.491 67.968L766.418 66.432C779.888 44.24 785.206 20.816 781.847 0H783.614ZM250.679 0C252.656 6.288 253.268 13.328 252.411 20.672C251.029 32.336 246.201 43.488 241.67 52.864C237.559 61.328 232.469 70.928 223.792 77.664C215.938 83.76 204.899 87.52 191.867 88.528C182.193 89.264 172.379 88.544 162.88 87.856C161.166 87.728 159.434 87.6 157.72 87.472C126.704 85.344 95.3212 85.984 64.4629 89.344C44.6955 91.504 20.7821 95.328 0 105.456V103.664C20.8346 93.68 44.573 89.904 64.253 87.76C95.2337 84.384 126.722 83.744 157.842 85.888C159.574 86 161.289 86.128 163.02 86.256C172.449 86.944 182.193 87.664 191.727 86.928C204.375 85.952 215.081 82.32 222.655 76.448C231.052 69.92 236.038 60.512 240.061 52.208C244.557 42.96 249.315 31.952 250.679 20.496C251.537 13.184 250.889 6.208 248.843 0H250.679ZM610.815 0C610.71 14.208 607.666 28.336 604.692 42.048C602.68 51.312 600.616 60.88 599.461 70.368C598.779 76.064 598.744 86.112 606.196 89.232C612.249 91.776 619.439 87.776 622.605 82.592C625.439 78 626.156 72.528 626.874 67.232C626.996 66.256 627.136 65.264 627.276 64.288C628.291 57.376 630.04 50.48 631.737 43.808C633.084 38.464 634.501 32.928 635.498 27.44C637.44 16.896 637.527 7.824 635.708 0H637.492C639.276 7.952 639.189 17.104 637.23 27.712C636.215 33.248 634.798 38.8 633.434 44.176C631.754 50.816 630.005 57.664 629.008 64.496C628.868 65.472 628.728 66.448 628.605 67.424C627.871 72.88 627.136 78.512 624.127 83.376C621.346 87.904 615.765 91.616 610.133 91.616C608.558 91.616 606.984 91.328 605.479 90.688C597.012 87.136 596.995 76.32 597.73 70.192C598.884 60.64 600.966 51.024 602.96 41.744C605.934 28.112 608.96 14.048 609.065 0H610.815ZM987.376 0C986.554 16.976 983.318 33.728 977.72 50.048C975.463 56.592 973.469 63.952 978.122 68.464C981.831 72.048 988.111 71.984 993.149 71.536C1004.17 70.544 1015.17 68.144 1025.79 65.84C1030.29 64.864 1034.94 63.84 1039.54 62.944C1103.69 50.48 1169.04 57.776 1235.94 67.04C1259.26 70.272 1286.62 74.064 1312 70.08V71.712C1304.23 72.928 1296.27 73.408 1288.31 73.408C1270.14 73.408 1251.95 70.88 1235.68 68.624C1168.94 59.376 1103.76 52.096 1039.91 64.512C1035.33 65.408 1030.69 66.416 1026.19 67.392C1015.51 69.712 1004.47 72.112 993.324 73.12C988.303 73.568 981.131 73.696 976.845 69.552C971.545 64.416 973.661 56.544 976.058 49.568C981.586 33.424 984.787 16.8 985.609 0H987.376ZM815.784 0C818.513 18.736 815.802 38.272 807.965 55.744C807.212 57.408 806.513 59.008 806.705 60.544C807.055 63.424 810.554 65.264 813.72 65.392C818.828 65.568 823.481 62.64 828.169 59.36L843.249 48.752C847.237 45.936 851.75 42.768 854.462 38.576C856.753 35.024 857.716 30.864 858.643 26.832L864.818 0H866.602L860.357 27.168C859.395 31.312 858.415 35.616 855.966 39.392C853.097 43.84 848.427 47.12 844.316 50.016L829.219 60.624C824.443 63.984 819.685 66.992 814.21 66.992H813.65C809.749 66.848 805.428 64.464 804.956 60.72C804.711 58.768 805.551 56.912 806.303 55.264C814.087 37.888 816.764 18.528 814.035 0H815.784ZM213.349 0C215.518 8.416 215.046 18.64 211.809 28.768C210.27 33.6 208.223 38.048 205.774 41.92C203.325 45.808 200.474 49.12 197.36 51.68C186.182 60.88 170.98 61.872 156.285 62.832C153.696 63.008 151.125 63.168 148.606 63.376C127.649 65.168 107.199 66.16 87.834 66.352C84.1954 66.4 80.4168 66.496 76.5508 66.592C71.2503 66.72 65.7924 66.864 60.282 66.864C43.366 66.864 26.0301 65.568 12.0004 58.864C7.48715 56.72 3.44619 53.856 0 50.48V48.08C3.56864 51.904 7.90699 55.12 12.8051 57.456C30.9982 66.128 55.174 65.52 76.4983 64.992C80.3819 64.896 84.1779 64.8 87.8165 64.752C107.147 64.56 127.544 63.568 148.448 61.792C150.967 61.568 153.556 61.408 156.163 61.232C157.292 61.1592 158.424 61.0861 159.557 61.009L161.257 60.8898C174.005 59.9656 186.71 58.2889 196.188 50.496C202.188 45.552 207.139 37.68 210.13 28.32C213.331 18.304 213.769 8.208 211.564 0H213.349ZM67.1044 0C65.0831 0.28899 63.0289 0.599528 60.9832 0.956456L59.9612 1.1389C59.4507 1.23217 58.9413 1.3286 58.4334 1.42857L57.42 1.63337C44.2784 4.36012 32.5151 9.65905 33.4997 24.352C33.972 31.472 38.048 37.968 44.3631 41.696C47.4244 43.504 51.1855 44.848 55.5413 45.696C65.53 47.616 76.6558 47.168 86.487 46.768C87.904 46.72 89.3035 46.656 90.668 46.608C101.409 46.256 112.325 45.44 122.873 44.64L128.524 44.224C129.223 44.176 129.923 44.128 130.623 44.096L132.844 43.968C141.818 43.472 151.107 42.944 158.612 38.752C163.895 35.792 168.111 31.232 170.473 25.92C174.286 17.296 172.362 8.448 165.417 2.816C164.14 1.792 162.723 0.848 161.149 0H164.315C165.12 0.512 165.872 1.056 166.572 1.632C174.094 7.712 176.193 17.248 172.082 26.512C169.58 32.144 165.12 36.976 159.522 40.112C151.65 44.528 142.151 45.056 132.949 45.568L130.745 45.68L128.663 45.824L123.031 46.24C112.447 47.04 101.514 47.856 90.7379 48.208C89.3734 48.256 87.974 48.32 86.5745 48.368C82.3586 48.544 77.8978 48.72 73.402 48.72C67.2794 48.72 61.0517 48.384 55.174 47.248C50.6082 46.368 46.6547 44.96 43.4185 43.04C36.631 39.04 32.2577 32.08 31.7504 24.448C30.6658 8.48 43.7333 2.816 57.4306 0H67.1044ZM1021.23 0C1021.61 9.28 1019.49 18.64 1015.05 26.976L1014.79 27.472C1013.95 29.024 1013.09 30.624 1013.04 32.256C1012.9 35.856 1016.71 38.72 1020.49 39.408C1024.46 40.144 1028.66 39.168 1032.7 38.224L1032.89 38.176C1074.81 28.4 1117.95 24.576 1161.14 26.832C1174.05 27.504 1187.13 28.736 1199.78 29.936C1216.59 31.52 1233.98 33.168 1251.14 33.488C1274.35 33.952 1294.49 31.824 1312 27.04V28.704C1294.44 33.44 1274.28 35.552 1251.11 35.088C1233.87 34.752 1216.45 33.12 1199.61 31.52C1186.98 30.336 1173.91 29.088 1161.03 28.416C1118.03 26.192 1075.07 29.984 1033.33 39.728L1033.14 39.776C1029.97 40.512 1026.72 41.264 1023.45 41.264C1022.35 41.264 1021.24 41.184 1020.14 40.976C1015.66 40.16 1011.11 36.656 1011.29 32.192C1011.36 30.224 1012.3 28.464 1013.21 26.768L1013.49 26.272C1017.81 18.144 1019.88 9.024 1019.49 0H1021.23ZM113.147 12.832C116.751 12.832 120.389 13.024 123.993 13.392C131.567 14.16 134.174 17.504 134.086 20.384C133.981 24.032 129.503 28.144 121.421 28.576C119.13 28.704 116.838 28.56 114.616 28.432C112.937 28.336 111.223 28.24 109.526 28.256C105.765 28.272 101.916 28.864 98.1901 29.424C94.3241 30 90.3881 30.592 86.4696 30.592C84.0555 30.592 81.6414 30.368 79.2448 29.76C76.9182 29.184 75.3963 28.272 74.6266 26.976C73.5595 25.216 74.0318 22.784 75.7461 21.056C77.2156 19.552 79.2973 18.736 81.1166 18.08C90.7729 14.64 101.846 12.832 113.147 12.832ZM123.8 14.976C109.158 13.472 94.2191 15.104 81.7463 19.568C80.1195 20.16 78.2652 20.88 77.0406 22.128C76.0085 23.168 75.3613 24.912 76.1485 26.208C76.6908 27.104 77.8628 27.76 79.7171 28.224C85.5774 29.696 91.5601 28.8 97.9102 27.84C101.689 27.264 105.625 26.672 109.508 26.656C111.258 26.64 113.024 26.736 114.721 26.832C116.89 26.96 119.147 27.088 121.316 26.976C128.104 26.624 132.25 23.328 132.337 20.336C132.425 17.584 129.153 15.52 123.8 14.976Z" fill="white" fill-opacity="0.15"/>
</svg>
