<svg width="555" height="442" viewBox="0 0 555 442" fill="none" xmlns="http://www.w3.org/2000/svg">
<path fill-rule="evenodd" clip-rule="evenodd" d="M338.918 36.3709C364.742 42.6502 393.562 58.7419 396.998 85.0854C398.726 98.3945 393.562 111.228 389.011 122.559L361.459 191.1C352.032 214.551 341.357 241.114 345.869 267.513C350.784 296.2 374.976 320.731 404.678 327.175C413.53 329.097 423.072 329.591 432.307 330.086C448.896 330.946 466.042 331.843 480.192 340.905C502.406 355.129 506.726 382.736 507.322 397.931C508.032 416.549 504.307 430.608 495.898 440.933C495.61 441.281 495.322 441.647 494.995 441.995H487.392C488.813 440.494 490.138 439.029 491.347 437.565C498.893 428.302 502.234 415.395 501.562 398.132C501.005 383.981 497.088 358.333 476.986 345.463C464.73 337.609 449.915 336.524 434.182 335.677L431.981 335.559C422.515 335.065 412.723 334.552 403.411 332.539C371.462 325.6 345.466 299.239 340.186 268.392C335.424 240.547 346.867 212.043 356.083 189.123L383.635 120.601C387.936 109.873 392.832 97.7171 391.277 85.7627C388.205 62.1653 361.478 47.5198 337.498 41.6982C278.112 27.2541 215.482 41.6433 156.422 57.6252C126.835 65.6253 100.397 73.369 76.5504 87.3005C70.6368 90.7422 64.8 94.6416 59.1552 98.4128C47.9424 105.919 36.3456 113.662 23.2512 118.532C16.224 121.15 8.1408 122.779 0 122.944V117.47C7.3728 117.305 14.7648 115.804 21.1584 113.424C33.6 108.793 44.9088 101.232 55.8528 93.9276C61.5744 90.1014 67.4688 86.1472 73.536 82.614C97.9968 68.353 125.952 60.1515 154.848 52.3345C214.656 36.1513 278.15 21.5973 338.918 36.3709ZM361.306 10.6315C387.994 17.6431 406.368 27.0711 419.117 40.3252C429.427 51.0347 451.814 82.2478 436.838 140.317C432.499 157.086 426.01 173.489 419.712 189.379C413.242 205.672 406.56 222.533 402.278 239.723C400.109 248.382 398.458 258.359 402.47 266.762C405.12 272.273 410.15 277.087 417.869 281.499C431.827 289.481 448.224 293.124 464.064 296.639L466.923 297.276C483.15 300.901 499.734 304.907 513.715 313.811C535.027 327.376 549.485 352.328 553.363 382.26C555.955 402.233 554.035 422.297 551.002 441.995H549.062C552.096 422.334 554.035 402.324 551.462 382.48C547.642 353.079 533.491 328.603 512.64 315.33C499.352 306.872 483.499 302.891 467.89 299.382L465.056 298.748C464.584 298.643 464.112 298.538 463.642 298.433C447.648 294.882 431.098 291.202 416.89 283.074C408.826 278.46 403.526 273.371 400.723 267.531C396.461 258.616 398.17 248.254 400.416 239.302C404.736 222.002 411.437 205.087 417.907 188.72C424.186 172.903 430.675 156.537 434.957 139.878C449.722 82.6689 427.795 52.0599 417.696 41.5518C405.216 28.5723 387.13 19.309 360.787 12.4073C284.544 -7.62035 197.203 0.764165 85.9392 38.7691L79.2 41.0941C53.6448 49.8814 27.2256 58.9616 0 58.9249V57.0943C23.5704 57.1423 46.5822 50.2244 68.9839 42.6441L72.18 41.5574C74.308 40.8308 76.4304 40.101 78.5472 39.3733L85.3056 37.0483C196.954 -1.08483 284.659 -9.48764 361.306 10.6315ZM298.176 73.3873C324.691 77.4514 340.109 94.2937 343.642 109.195C347.03 123.477 341.721 137.694 336.055 151.498L335.314 153.296C335.191 153.596 335.067 153.895 334.944 154.194L334.003 156.482C314.554 203.823 308.736 244.007 316.224 279.302C327.187 330.946 365.798 360.585 399.206 367.065C402.355 367.688 405.638 368.145 408.826 368.585C416.41 369.665 424.243 370.782 431.309 374.004C447.533 381.454 457.709 400.292 456.038 419.826C455.405 427.167 453.254 434.599 449.683 441.995H447.571C450.95 435.203 453.427 427.697 454.118 419.679C455.731 400.878 446.016 382.773 430.464 375.651C423.686 372.539 415.987 371.459 408.538 370.397C405.331 369.958 402.029 369.482 398.822 368.859C378.067 364.832 358.944 353.701 343.488 336.658C329.146 320.822 318.797 300.593 314.342 279.669C306.778 244.007 312.614 203.494 332.218 155.805L333.158 153.516C339.11 139.127 345.235 124.262 341.779 109.598C338.381 95.3006 323.501 79.1174 297.869 75.1814C283.699 73.0212 269.184 75.4926 255.149 77.9091C250.387 78.7146 245.491 79.5567 240.672 80.1975C220.224 82.9435 199.776 87.2273 179.885 92.9756C139.757 104.564 102.125 121.827 68.0064 144.29C66.2784 145.406 64.5696 146.56 62.8416 147.713C50.9952 155.64 38.7264 163.823 24.576 167.393C16.5504 169.425 8.3712 169.864 0 170.029V168.198C8.2176 168.034 16.2624 167.594 24.096 165.635C37.92 162.139 50.0352 154.047 61.7472 146.212C63.4752 145.059 65.184 143.905 66.912 142.77C101.203 120.216 139.008 102.88 179.328 91.2365C199.315 85.4515 219.859 81.1311 240.403 78.3851C245.184 77.7444 250.08 76.9206 254.803 76.0967C268.992 73.6619 283.68 71.1539 298.176 73.3873ZM275.405 285.161C279.475 292.264 279.706 300.465 279.936 308.41C280.07 313.591 280.224 318.937 281.434 323.916C284.813 337.811 296.006 349.784 316.704 361.628C329.894 369.189 343.891 375.596 358.33 380.722L362.131 382.04C378.106 387.624 396.23 393.958 403.488 408.97C407.77 417.867 407.405 429.18 402.509 439.231C402.048 440.164 401.568 441.08 401.03 441.995H398.822C399.552 440.823 400.186 439.652 400.762 438.462C405.427 428.887 405.792 418.141 401.741 409.738C395.532 396.862 381.22 390.781 366.473 385.524L364.802 384.932C363.688 384.539 362.572 384.15 361.459 383.761L357.658 382.425C343.123 377.28 329.011 370.818 315.706 363.203C294.547 351.083 283.066 338.726 279.571 324.337C278.304 319.175 278.15 313.719 278.016 308.465C277.786 300.374 277.574 292.74 273.715 286.021C265.92 272.382 246.144 269.453 231.494 273.627C218.842 277.215 207.84 284.904 197.203 292.337C194.746 294.039 192.288 295.76 189.811 297.408C161.856 316.227 128.371 330.964 84.4224 343.761C58.752 351.248 29.4144 358.113 0 355.953V354.104C29.1456 356.283 58.3104 349.436 83.8464 342.003C127.603 329.262 160.915 314.616 188.717 295.925C191.174 294.259 193.613 292.557 196.07 290.854C206.842 283.33 217.978 275.55 230.938 271.87C246.317 267.495 267.11 270.662 275.405 285.161ZM245.414 337.28C248.563 341.838 249.946 347.184 251.29 352.365C251.693 353.939 252.096 355.495 252.538 357.033C258.566 377.647 274.138 394.013 293.184 399.78C297.85 401.189 302.784 402.013 307.546 402.8C311.213 403.404 315.014 404.027 318.701 404.924C329.165 407.468 336.787 412.155 340.723 418.489C345.427 426.068 344.525 434.563 341.779 441.995H339.763C342.528 434.837 343.565 426.636 339.072 419.423C334.426 411.954 325.171 408.384 318.221 406.7C314.611 405.821 310.848 405.198 307.219 404.594C302.381 403.807 297.389 402.983 292.608 401.537C272.947 395.587 256.877 378.727 250.694 357.527C250.234 355.971 249.83 354.397 249.427 352.804C248.122 347.788 246.778 342.571 243.821 338.287C236.736 328.072 222.067 325.454 210.682 327.413C199.507 329.335 189.254 334.827 179.366 340.154L176.122 341.875C134.304 364.136 71.5008 388.722 0 387.239V385.427C71.0976 386.91 133.574 362.434 175.2 340.282L178.406 338.543C188.448 333.161 198.835 327.577 210.336 325.619C222.355 323.55 237.85 326.369 245.414 337.28ZM208.378 381.912C213.006 385.52 215.586 390.666 217.936 395.8L218.573 397.198C220.243 400.878 221.971 404.668 224.371 407.889C229.978 415.377 239.117 419.661 247.93 423.798C249.274 424.421 250.598 425.043 251.904 425.684C256.032 427.661 260.678 430.132 263.309 434.251C264.864 436.668 265.574 439.414 265.978 441.995H264.038C263.654 439.688 263.002 437.272 261.677 435.203C259.296 431.505 254.938 429.18 251.04 427.313C249.734 426.691 248.41 426.068 247.085 425.446L245.332 424.621C236.85 420.619 228.312 416.315 222.816 408.951C220.282 405.565 218.515 401.684 216.806 397.912C214.253 392.292 211.853 386.983 207.168 383.34C201.677 379.075 193.152 377.72 184.378 379.734C177.619 381.271 171.283 384.438 165.158 387.496C164.064 388.045 162.989 388.576 161.914 389.107C111.072 414.004 53.3184 421.016 0 425.373V423.542C53.1072 419.185 110.554 412.192 161.03 387.477C162.106 386.947 163.181 386.416 164.256 385.866C170.496 382.773 176.947 379.551 183.936 377.958C193.421 375.779 202.33 377.226 208.378 381.912ZM182.458 435.057C185.453 436.906 188.237 439.121 190.944 441.245L191.885 441.995H188.87C186.49 440.091 184.013 438.206 181.421 436.595C168.307 428.54 150.47 427.112 128.371 432.366C121.824 433.922 115.258 435.917 108.902 437.839C104.198 439.249 99.3984 440.714 94.56 441.995H86.9952C94.2336 440.366 101.357 438.206 108.326 436.1C114.701 434.16 121.306 432.164 127.91 430.59C150.528 425.208 168.883 426.709 182.458 435.057ZM133.69 154.23C172.109 138.834 252.058 106.816 281.549 122.267C287.674 125.47 291.398 130.578 292.608 137.443C297.595 165.546 267.123 199.281 250.189 215.535L249.03 216.641C246.759 218.793 244.773 220.595 243.206 221.984C216.902 245.288 185.376 262.79 152.659 280.126C113.107 301.106 68.2752 324.868 19.4496 326.442C18.0288 326.497 16.608 326.516 15.2256 326.516C9.7344 326.516 4.6656 326.15 0 325.399V323.55C5.7984 324.502 12.2496 324.85 19.392 324.612C67.7568 323.056 112.378 299.403 151.738 278.534C184.339 261.252 215.75 243.824 241.901 220.647C254.784 209.224 296.352 169.535 290.707 137.754C289.594 131.475 286.195 126.807 280.627 123.878C251.962 108.848 172.57 140.647 134.438 155.914C126.336 159.155 119.962 161.718 116.198 162.981C77.6064 175.887 34.2336 190.386 0 216.345V214.002C34.2912 188.427 77.2608 174.038 115.565 161.242C119.27 160.015 125.626 157.452 133.69 154.23ZM89.3184 202.286C99.8208 198.661 116.064 198.02 126.95 205.196C133.613 209.59 137.203 216.309 137.299 224.62C137.434 234.78 131.194 244.849 118.234 255.375C100.339 269.929 79.008 281.151 54.7968 288.767C41.7216 292.886 30.4512 294.9 20.3136 294.9C15.6864 294.9 11.2704 294.479 7.0464 293.637C4.9152 293.234 2.208 292.538 0 291.092V288.73C2.016 290.598 5.1072 291.385 7.4304 291.861C20.6208 294.442 35.4816 292.904 54.2016 287.028C78.1632 279.486 99.2832 268.373 116.986 253.984C129.485 243.824 135.494 234.231 135.379 224.638C135.283 216.84 132.077 210.798 125.856 206.698C117.005 200.858 102.259 199.759 89.9904 204.006L84.96 205.746C63.1296 213.27 40.5504 221.032 22.6944 235.586C11.5392 244.684 3.6864 255.723 0 267.165V261.746C4.2624 251.732 11.5968 242.213 21.4464 234.194C30.5088 226.817 40.7232 221.16 51.4176 216.418C62.1312 211.659 73.3056 207.814 84.3072 204.025L89.3184 202.286ZM224.947 155.31C235.853 154.725 243.974 157.763 247.238 163.603C250.406 169.242 248.698 176.748 242.419 184.729C230.419 200.016 210.413 209.462 190.598 209.462C189.312 209.462 188.006 209.425 186.72 209.334C184.474 209.187 182.112 208.931 179.962 207.924C174.182 205.215 172.493 198.405 172.781 193.407C173.357 183.668 179.923 173.837 190.31 167.118C195.59 163.713 201.466 160.912 207.418 158.88C213.35 156.848 219.379 155.603 224.947 155.31ZM227.52 157.068C226.714 157.068 225.888 157.104 225.043 157.141C214.253 157.709 201.677 161.992 191.405 168.638C186.451 171.823 182.419 175.759 179.539 180.025C176.678 184.308 174.989 188.922 174.701 193.517C174.432 197.947 175.872 203.97 180.806 206.277C182.65 207.137 184.8 207.375 186.854 207.503C207.264 208.803 228.48 199.43 240.883 183.631C246.682 176.253 248.352 169.443 245.549 164.464C242.88 159.704 236.39 157.068 227.52 157.068Z" fill="#575445" fill-opacity="0.09"/>
</svg>
