<svg width="470" height="432" viewBox="0 0 470 432" fill="none" xmlns="http://www.w3.org/2000/svg">
<path fill-rule="evenodd" clip-rule="evenodd" d="M423.881 115.989C440.95 119.486 457.346 122.085 470.402 117.087V122.891C454.62 127.888 435.977 124.081 422.671 121.353C293.858 94.991 187.337 97.8835 96.9815 130.232C50.0567 147.019 21.2951 170.433 11.4647 199.834C7.04869 213.052 6.64551 227.313 6.26151 241.098C5.41671 271.743 4.51435 303.432 13.9799 333.181C19.4135 350.316 28.6103 367.763 42.0887 386.509C49.6343 396.999 59.0807 408.587 71.8679 414.976C83.0423 420.578 95.9639 421.969 109.327 423.013C126.319 424.331 143.541 425.173 160.572 425.521C170.018 425.704 178.447 425.612 186.012 422.518C195.458 418.619 202.428 410.271 208.572 402.912L283.644 312.952C296.777 297.208 311.676 279.359 331.26 268.027C348.617 257.958 375.074 251.459 397.25 263.359C401.59 265.702 405.506 268.613 409.289 271.432C412.802 274.068 416.124 276.558 419.772 278.608C434.748 287.048 452.45 286.846 470.402 282.746V288.274C442.927 294.352 427.932 289.574 416.853 283.332C412.86 281.098 409.231 278.389 405.737 275.771C401.954 272.952 398.383 270.279 394.428 268.155C377.935 259.295 354.319 261.089 334.236 272.714C315.554 283.533 301.615 300.229 288.137 316.375L213.084 406.335C206.825 413.823 199.068 423.122 188.297 427.553C181.154 430.482 173.417 431.068 165.429 431.068C163.778 431.068 162.108 431.049 160.437 431.013C143.311 430.665 125.954 429.804 108.866 428.486C94.8887 427.388 81.3335 425.923 69.1991 419.845C55.279 412.889 45.2951 400.66 37.3463 389.621C23.5223 370.399 14.0759 352.458 8.45028 334.774C0.0428943 308.285 -0.413044 280.659 0.17649 253.555L0.260689 249.945C0.275552 249.344 0.290759 248.743 0.306275 248.142L0.402251 244.542C0.434989 243.344 0.468278 242.147 0.501509 240.951C0.904709 226.782 1.30786 212.136 5.97346 198.168C16.3607 167.083 46.3127 142.497 94.9655 125.087C186.377 92.3548 293.974 89.3891 423.881 115.989ZM116.297 150.406C164.796 135.229 255.074 106.982 288.06 170.836C296.297 186.8 297.948 206.718 292.706 226.947C288.559 242.983 280.341 259.258 266.882 278.169C253.807 296.549 237.698 315.039 216.194 336.366C199.413 353.007 184.591 365.969 166.793 375.067C152.508 382.371 137.801 386.106 123.9 386.106C117.142 386.106 110.594 385.227 104.373 383.452C85.5575 378.088 68.3351 363.625 57.1031 343.762C46.8119 325.547 42.0887 304.97 38.5367 285.455C32.9687 254.919 29.8007 220.045 48.4055 192.841C64.9367 168.658 95.0807 157.033 116.297 150.406ZM286.332 171.642C254.076 109.234 164.834 137.133 116.892 152.145C95.9447 158.699 66.2231 170.14 50.0183 193.848C31.7591 220.521 34.9271 254.956 40.4375 285.144C43.9703 304.513 48.6359 324.906 58.7927 342.884C69.7943 362.325 86.5943 376.477 104.93 381.694C123.228 386.912 145.442 383.909 165.871 373.456C183.458 364.467 198.165 351.616 214.812 335.085C236.239 313.849 252.271 295.432 265.308 277.144C278.633 258.416 286.754 242.324 290.844 226.507C295.989 206.699 294.377 187.221 286.332 171.642ZM124.917 177.903C164.412 164.099 220.533 150.04 251.733 187.221C258.741 195.55 262.255 204.759 262.255 214.681C262.255 219.496 261.429 224.493 259.778 229.638C254.94 244.741 245.167 258.947 236.239 270.846C225.545 285.071 213.372 299.002 199.01 313.428C188.47 324.028 176.815 334.829 163.029 342.096C152.201 347.826 140.604 350.81 129.756 350.81C125.302 350.81 120.962 350.316 116.873 349.291C102.53 345.721 89.4167 335.488 80.9111 321.208C72.8663 307.606 69.4679 291.899 67.2023 278.297C66.9335 276.778 66.7031 275.24 66.4727 273.702C63.8807 256.036 61.9991 230.223 75.6503 210.214C84.9623 196.576 100.61 186.305 124.917 177.903ZM194.498 165.234C170.997 165.234 146.037 172.465 125.589 179.623C101.685 187.88 86.3255 197.912 77.2631 211.203C63.9575 230.718 65.8199 256.073 68.3735 273.446C68.6039 274.984 68.8343 276.503 69.0839 278.023C71.3303 291.441 74.6903 306.966 82.5815 320.293C90.8375 334.17 103.509 344.092 117.353 347.515C130.946 350.902 147.266 348.357 162.089 340.504C175.644 333.346 187.183 322.655 197.628 312.165C211.932 297.812 224.047 283.936 234.684 269.766C243.516 257.995 253.193 243.954 257.954 229.107C262.812 213.949 260.22 200.237 250.236 188.356C243.017 179.752 234.396 173.967 224.911 170.342C215.446 166.717 205.116 165.234 194.498 165.234ZM133.519 205.418C158.594 194.781 203.1 187.788 218.018 202.873C228.117 212.338 232.246 219.496 226.85 232.365C222.242 243.349 213.142 254.352 205.846 263.194L205.577 263.524C198.357 272.256 190.486 281.574 181.826 290.508C175.26 297.263 167.983 304.22 159.266 309.126C151.778 313.391 143.484 315.661 135.708 315.661C133.557 315.661 131.446 315.478 129.391 315.13C119.446 313.391 110.46 307.405 104.738 298.654C98.9591 289.83 96.9431 279.322 95.8487 271.139C95.7143 270.169 95.5991 269.18 95.4839 268.173C93.6022 250.983 96.0406 237.693 102.914 227.569C110.748 215.999 124.13 209.39 133.519 205.418ZM187.893 196.081C170.21 196.081 149.071 200.823 134.306 207.084C119.734 213.253 110.287 220.081 104.527 228.558C97.9031 238.333 95.5607 251.221 97.4039 267.99C97.4999 268.961 97.6342 269.949 97.7494 270.92C98.8246 278.901 100.783 289.171 106.37 297.684C111.804 305.995 120.329 311.689 129.737 313.336C138.703 314.893 149.109 312.787 158.287 307.551C166.793 302.755 173.954 295.927 180.425 289.263C189.026 280.384 196.879 271.103 204.06 262.389L204.329 262.059C211.567 253.308 220.553 242.416 225.065 231.688C229.596 220.887 227.638 214.461 216.655 204.173L216.636 204.155C210.972 198.406 200.277 196.081 187.893 196.081ZM178.505 219.972C188.508 219.184 194.268 220.667 196.092 224.475C199.308 231.133 189.042 242.682 177.633 253.623L176.525 254.68C176.34 254.856 176.155 255.031 175.97 255.207L174.857 256.256C172.188 258.764 169.749 261.62 167.407 264.384C163.855 268.54 160.188 272.823 155.58 276.119C151.356 279.139 145.826 281.007 140.585 281.007C135.996 281.007 131.637 279.579 128.623 276.192C125.781 273.025 124.399 268.448 124.495 262.572C124.649 255.249 127.164 249.116 130.697 244.118C134.21 239.121 138.722 235.258 142.831 232.42C152.681 225.61 166.025 220.96 178.505 219.972ZM194.345 225.244C192.943 222.297 187.529 221.107 178.658 221.802C143.119 224.603 126.722 247.359 126.415 262.608C126.319 268.009 127.548 272.183 130.082 275.002C135.842 281.428 147.209 279.817 154.428 274.654C158.844 271.505 162.434 267.295 165.909 263.231C168.29 260.43 170.767 257.537 173.513 254.956C174.115 254.392 174.808 253.742 175.567 253.023L176.348 252.28C184.092 244.887 197.314 231.39 194.345 225.244ZM351.093 136.859C365.071 137.133 379.125 139.001 392.719 140.831C400.879 141.911 409.327 143.046 417.641 143.797C438.742 145.738 455.887 144.767 470.402 140.703V142.607C455.753 146.616 438.569 147.568 417.468 145.628C409.097 144.859 400.63 143.724 392.45 142.644C378.914 140.831 364.918 138.964 351.055 138.689C344.758 138.58 337.692 139.037 333.468 143.413C328.169 148.85 330.146 157.454 331.241 160.896C331.97 163.221 332.93 165.527 333.871 167.779C335.426 171.495 337.02 175.34 337.673 179.404C338.421 184.072 337.884 188.813 337.366 193.39C337.116 195.569 336.866 197.839 336.751 200.054C336.521 204.777 337.039 213.399 343.145 217.976C348.597 222.04 355.701 221.345 363.247 220.594C367.356 220.191 371.618 219.752 375.669 220.155C385.519 221.125 393.641 226.91 401.493 232.494C404.066 234.306 406.716 236.21 409.366 237.876C427.145 249.061 449.762 252.466 470.402 247.871V249.757C464.45 251.038 458.364 251.679 452.258 251.679C436.764 251.679 421.289 247.56 408.309 239.395C405.621 237.693 402.934 235.807 400.361 233.958L398.875 232.905C391.673 227.815 384.189 222.842 375.477 221.985C371.618 221.601 367.471 222.022 363.439 222.406C355.855 223.175 348.021 223.944 341.954 219.404C335.177 214.333 334.582 205.052 334.831 199.962C334.946 197.692 335.215 195.404 335.465 193.189C335.964 188.722 336.501 184.109 335.772 179.678C335.158 175.816 333.602 172.081 332.086 168.456C331.145 166.168 330.165 163.825 329.397 161.426C328.207 157.674 326.095 148.319 332.047 142.168C336.809 137.28 344.335 136.749 351.093 136.859ZM470.402 164.539V166.443C448.265 172.337 424.438 170.488 403.106 168.822C394.389 168.145 382.255 168.145 377.628 175.98C374.153 181.893 377.167 189.619 381.775 193.884C386.825 198.571 393.948 200.878 400.898 202.69C425.167 208.988 448.802 210.507 470.402 207.285V209.134C463.068 210.232 455.541 210.763 447.823 210.763C432.559 210.763 416.604 208.658 400.399 204.447C393.199 202.58 385.807 200.182 380.431 195.203C375.19 190.333 371.964 181.857 375.957 175.083C381.122 166.333 394.006 166.278 403.26 167.01C424.61 168.676 448.457 170.525 470.402 164.539ZM114.108 0.45459C113.205 19.8781 109.653 39.0454 103.509 57.7183C101.033 65.2058 98.8439 73.6269 103.951 78.7895C108.022 82.8902 114.914 82.817 120.444 82.3044C132.54 81.1693 144.617 78.4233 156.271 75.7871C161.206 74.6704 166.313 73.4988 171.362 72.4736C234.805 59.623 299.324 65.1304 365.186 74.101L370.007 74.7633C373.223 75.2087 376.442 75.6615 379.665 76.1199L384.501 76.8116C385.307 76.9275 386.114 77.0437 386.921 77.1602C412.514 80.8581 442.543 85.1968 470.402 80.6385V82.5057C461.877 83.8971 453.142 84.4463 444.406 84.4463C424.457 84.4463 404.489 81.5538 386.633 78.9725C381.803 78.2749 376.981 77.587 372.166 76.9147L367.354 76.2478C300.818 67.1008 235.685 61.3105 171.766 74.2677C166.735 75.2929 161.647 76.4462 156.713 77.5629C144.981 80.2174 132.866 82.9634 120.636 84.1168C115.126 84.6293 107.253 84.7758 102.549 80.0343C96.7318 74.1578 99.0551 65.1509 101.686 57.1691C107.753 38.6975 111.266 19.6767 112.169 0.45459H114.108ZM151.26 0.45459C151.682 11.0725 149.359 21.782 144.482 31.3199L144.194 31.8874C143.273 33.6632 142.332 35.4938 142.274 37.3611C142.121 41.4802 146.306 44.7571 150.453 45.5443C154.812 46.3864 159.42 45.2697 163.855 44.1896L164.066 44.1347C210.07 32.9492 257.417 28.5739 304.822 31.1551C318.991 31.924 333.353 33.3336 347.234 34.7066C365.685 36.519 384.77 38.4046 403.606 38.7708C429.084 39.3017 451.183 36.8669 470.402 31.3931V33.297C451.125 38.7158 429.007 41.1323 403.567 40.6014C384.655 40.217 365.532 38.3497 347.042 36.519C333.18 35.1643 318.837 33.7364 304.706 32.9675C257.513 30.4229 210.357 34.7616 164.546 45.9104L164.335 45.9653C160.86 46.8075 157.289 47.6679 153.698 47.6679C152.489 47.6679 151.279 47.5763 150.069 47.3384C145.154 46.4047 140.162 42.3955 140.354 37.2879C140.431 35.0362 141.468 33.0224 142.466 31.0819L142.773 30.5144C147.516 21.2145 149.781 10.7796 149.359 0.45459H151.26Z" fill="#575445" fill-opacity="0.09"/>
</svg>
